<svg width="457" height="371" viewBox="0 0 457 371" fill="none" xmlns="http://www.w3.org/2000/svg">
<mask id="mask0_53_166" style="mask-type:luminance" maskUnits="userSpaceOnUse" x="0" y="0" width="457" height="371">
<path d="M0 0H457V371H0V0Z" fill="white"/>
</mask>
<g mask="url(#mask0_53_166)">
<path d="M0 0H457V371H0V0Z" fill="#E4E4FF"/>
<path d="M0 0H457V371H0V0Z" fill="#E4E4FF"/>
</g>
<mask id="mask1_53_166" style="mask-type:luminance" maskUnits="userSpaceOnUse" x="57" y="210" width="35" height="42">
<path d="M57 210.333H91.6146V251.667H57V210.333Z" fill="white"/>
</mask>
<g mask="url(#mask1_53_166)">
<path d="M91.0157 229.672C88.9271 232.542 87.224 235.625 85.9063 238.922C84.5886 242.214 83.698 245.625 83.2396 249.141C83.2084 249.422 83.1251 249.688 83.0001 249.938C82.8699 250.188 82.7032 250.406 82.4949 250.594C82.2865 250.781 82.0469 250.927 81.7865 251.031C81.5261 251.13 81.2553 251.182 80.974 251.182H59.3542C59.0313 251.182 58.724 251.12 58.4324 250.995C58.1355 250.865 57.8803 250.688 57.6615 250.448C57.448 250.214 57.2865 249.948 57.1771 249.646C57.073 249.344 57.0313 249.031 57.0574 248.714C57.6407 241.896 59.2084 235.313 61.7709 228.964C64.3282 222.62 67.7657 216.786 72.073 211.474C72.2813 211.224 72.5313 211.026 72.823 210.885C73.1094 210.74 73.4167 210.661 73.7396 210.646C74.0626 210.635 74.3751 210.688 74.6771 210.802C74.9792 210.922 75.2449 211.099 75.4688 211.328L90.8178 226.677C91.0105 226.875 91.1667 227.099 91.2813 227.349C91.3907 227.599 91.4584 227.865 91.474 228.135C91.4949 228.411 91.4636 228.682 91.3855 228.948C91.3074 229.214 91.1824 229.453 91.0157 229.672Z" fill="#302CFF"/>
</g>
<path d="M169.021 204.61L153.672 219.958C153.474 220.151 153.25 220.307 152.995 220.422C152.745 220.531 152.479 220.599 152.208 220.615C151.932 220.636 151.661 220.604 151.396 220.526C151.13 220.448 150.891 220.328 150.667 220.162C148.859 218.844 146.953 217.682 144.964 216.667C142.969 215.651 140.906 214.797 138.781 214.104C136.651 213.412 134.484 212.891 132.271 212.542C130.063 212.193 127.839 212.016 125.604 212.016C123.365 212.016 121.141 212.193 118.932 212.542C116.724 212.891 114.552 213.412 112.427 214.104C110.297 214.797 108.234 215.651 106.245 216.667C104.25 217.682 102.349 218.844 100.536 220.162C100.318 220.328 100.073 220.453 99.8073 220.531C99.5469 220.61 99.276 220.641 99 220.62C98.724 220.604 98.4583 220.537 98.2083 220.422C97.9531 220.307 97.7292 220.156 97.5365 219.958L82.1823 204.61C81.9531 204.38 81.7813 204.115 81.6615 203.818C81.5469 203.516 81.4948 203.203 81.5052 202.88C81.5208 202.557 81.599 202.25 81.7396 201.964C81.8854 201.672 82.0781 201.422 82.3281 201.219C83.8438 199.99 85.4115 198.828 87.026 197.74C88.6458 196.646 90.3021 195.62 92.0052 194.667C93.7083 193.719 95.4479 192.839 97.224 192.037C99.0052 191.229 100.813 190.5 102.651 189.854C104.49 189.203 106.354 188.63 108.245 188.136C110.13 187.646 112.036 187.235 113.958 186.906C115.88 186.573 117.818 186.328 119.76 186.162C121.703 185.995 123.651 185.912 125.604 185.912C127.552 185.912 129.5 185.995 131.443 186.162C133.391 186.328 135.323 186.573 137.245 186.906C139.167 187.235 141.073 187.646 142.964 188.136C144.849 188.63 146.714 189.203 148.552 189.854C150.391 190.5 152.198 191.229 153.979 192.037C155.755 192.839 157.495 193.719 159.198 194.667C160.901 195.62 162.563 196.646 164.177 197.74C165.792 198.828 167.359 199.99 168.875 201.219C169.125 201.422 169.318 201.672 169.464 201.964C169.604 202.25 169.682 202.557 169.698 202.88C169.708 203.203 169.656 203.516 169.542 203.818C169.422 204.115 169.25 204.38 169.021 204.61Z" fill="#302CFF"/>
<mask id="mask2_53_166" style="mask-type:luminance" maskUnits="userSpaceOnUse" x="57" y="210" width="138" height="114">
<path d="M57 210.333H194.932V323.656H57V210.333Z" fill="white"/>
</mask>
<g mask="url(#mask2_53_166)">
<path d="M194.438 254.745C194.438 292.677 163.63 323.589 125.604 323.578C90.6512 323.578 61.4793 297.49 57.3178 263.219C57.2814 262.891 57.3126 262.573 57.4168 262.266C57.5158 261.953 57.6772 261.677 57.896 261.432C58.1147 261.193 58.3751 261.005 58.672 260.87C58.9689 260.74 59.2814 260.677 59.6095 260.677H81.3699C81.6408 260.677 81.9012 260.729 82.1564 260.823C82.4064 260.917 82.6408 261.052 82.8439 261.224C83.047 261.401 83.2189 261.604 83.3543 261.839C83.4845 262.078 83.5731 262.328 83.6199 262.594C83.8595 263.885 84.1616 265.161 84.521 266.422C84.8803 267.688 85.2918 268.932 85.7658 270.156C86.2397 271.38 86.771 272.583 87.3543 273.76C87.9376 274.932 88.5783 276.083 89.2658 277.198C89.9585 278.318 90.6981 279.401 91.4897 280.448C92.2762 281.495 93.1147 282.505 94.0001 283.479C94.8803 284.453 95.8074 285.38 96.7762 286.266C97.7449 287.151 98.7553 287.995 99.8022 288.786C100.849 289.578 101.927 290.323 103.042 291.016C104.156 291.714 105.302 292.354 106.474 292.943C107.651 293.531 108.849 294.063 110.073 294.542C111.297 295.016 112.542 295.438 113.802 295.802C115.063 296.161 116.339 296.469 117.63 296.714C118.922 296.958 120.219 297.141 121.526 297.271C122.833 297.396 124.146 297.458 125.458 297.464C126.771 297.469 128.083 297.411 129.391 297.297C149.396 295.573 165.813 279.625 168.052 259.672C168.354 257.036 168.417 254.396 168.229 251.75C168.042 249.104 167.615 246.5 166.943 243.932C166.266 241.365 165.365 238.885 164.229 236.49C163.094 234.094 161.745 231.823 160.182 229.677C160.016 229.458 159.896 229.214 159.818 228.948C159.735 228.682 159.708 228.417 159.724 228.141C159.745 227.865 159.813 227.599 159.922 227.349C160.037 227.094 160.193 226.875 160.386 226.677L175.735 211.323C175.964 211.094 176.229 210.922 176.526 210.802C176.828 210.688 177.141 210.635 177.464 210.646C177.787 210.661 178.094 210.74 178.38 210.88C178.672 211.026 178.922 211.219 179.125 211.469C181.594 214.505 183.781 217.724 185.693 221.135C187.61 224.547 189.214 228.094 190.521 231.781C191.823 235.469 192.807 239.24 193.464 243.094C194.12 246.948 194.443 250.833 194.438 254.745Z" fill="#302CFF"/>
</g>
<mask id="mask3_53_166" style="mask-type:luminance" maskUnits="userSpaceOnUse" x="125" y="49" width="275" height="275">
<path d="M125.74 49H399.615V323.464H125.74V49Z" fill="white"/>
</mask>
<g mask="url(#mask3_53_166)">
<path d="M328.948 233.526C339.948 218.078 345.797 198.708 343.735 177.859C340.021 140.302 310.141 109.5 272.688 104.87C219.271 98.2603 174.386 143.146 180.99 196.568C185.62 234.021 216.422 263.901 253.979 267.614C274.828 269.677 294.198 263.828 309.646 252.828L375.818 318.625C378.479 321.292 381.974 322.625 385.469 322.625C388.49 322.625 391.516 321.625 394 319.63C400.485 314.422 400.099 304.302 394.214 298.422L328.953 233.526H328.948ZM262.245 240.724C232.089 240.724 207.641 216.276 207.641 186.12C207.641 155.969 232.089 131.521 262.245 131.521C292.396 131.521 316.844 155.969 316.844 186.12C316.844 216.276 292.396 240.724 262.245 240.724ZM385.094 49.6196H139.391C131.849 49.6196 125.74 55.729 125.74 63.2707V268.026C125.74 275.562 131.849 281.672 139.391 281.672H255.417V281.302C254.49 281.239 253.563 281.292 252.63 281.198C243.667 280.312 235.068 278.094 226.964 274.849H139.391C135.625 274.849 132.563 271.786 132.563 268.026V83.7446H391.922V268.026C391.922 270.437 390.589 272.463 388.688 273.677L393.636 278.594C396.729 276.094 398.745 272.312 398.745 268.026V63.2707C398.745 55.729 392.636 49.6196 385.094 49.6196ZM146.214 66.6821H139.391C137.505 66.6821 135.979 65.1561 135.979 63.2707C135.979 61.3853 137.505 59.8592 139.391 59.8592H146.214C148.104 59.8592 149.63 61.3853 149.63 63.2707C149.63 65.1561 148.104 66.6821 146.214 66.6821ZM166.693 66.6821H159.865C157.979 66.6821 156.453 65.1561 156.453 63.2707C156.453 61.3853 157.979 59.8592 159.865 59.8592H166.693C168.578 59.8592 170.104 61.3853 170.104 63.2707C170.104 65.1561 168.578 66.6821 166.693 66.6821ZM187.167 66.6821H180.339C178.453 66.6821 176.927 65.1561 176.927 63.2707C176.927 61.3853 178.453 59.8592 180.339 59.8592H187.167C189.052 59.8592 190.578 61.3853 190.578 63.2707C190.578 65.1561 189.052 66.6821 187.167 66.6821Z" fill="#302CFF"/>
</g>
</svg>
