<svg width="457" height="371" viewBox="0 0 457 371" fill="none" xmlns="http://www.w3.org/2000/svg">
<rect width="457" height="371" fill="#E4E4FF"/>
<mask id="mask0_53_168" style="mask-type:luminance" maskUnits="userSpaceOnUse" x="107" y="65" width="243" height="243">
<path d="M107 65H349.88V307.88H107V65Z" fill="white"/>
</mask>
<g mask="url(#mask0_53_168)">
<path d="M228.542 65C226.552 65 224.568 65.0469 222.578 65.1458C220.594 65.2448 218.609 65.3906 216.63 65.5833C214.651 65.7812 212.677 66.026 210.708 66.3177C208.74 66.6094 206.781 66.9479 204.833 67.3385C202.88 67.724 200.938 68.1615 199.01 68.6406C197.083 69.125 195.167 69.6562 193.26 70.2344C191.359 70.8125 189.469 71.4375 187.599 72.1042C185.724 72.776 183.87 73.4896 182.031 74.25C180.193 75.0156 178.375 75.8177 176.578 76.6719C174.781 77.5208 173 78.4167 171.25 79.3542C169.495 80.2917 167.766 81.2708 166.057 82.2917C164.354 83.3177 162.672 84.3802 161.016 85.4844C159.365 86.5885 157.74 87.7344 156.141 88.9167C154.542 90.1042 152.974 91.3281 151.438 92.5885C149.901 93.849 148.396 95.151 146.922 96.4844C145.448 97.8229 144.005 99.1927 142.599 100.599C141.193 102.005 139.823 103.448 138.484 104.922C137.151 106.396 135.849 107.901 134.589 109.438C133.328 110.974 132.104 112.542 130.922 114.141C129.734 115.74 128.589 117.365 127.484 119.016C126.38 120.672 125.318 122.349 124.292 124.057C123.271 125.766 122.292 127.495 121.354 129.25C120.417 131 119.521 132.781 118.672 134.578C117.818 136.375 117.016 138.193 116.25 140.031C115.49 141.87 114.776 143.724 114.104 145.599C113.438 147.469 112.813 149.359 112.234 151.26C111.656 153.167 111.125 155.083 110.641 157.01C110.161 158.938 109.724 160.88 109.339 162.833C108.948 164.781 108.609 166.74 108.318 168.708C108.026 170.677 107.781 172.651 107.589 174.63C107.391 176.609 107.245 178.594 107.146 180.578C107.052 182.568 107 184.552 107 186.542C107 188.531 107.052 190.521 107.146 192.505C107.245 194.495 107.391 196.479 107.589 198.458C107.781 200.438 108.026 202.411 108.318 204.375C108.609 206.344 108.948 208.302 109.339 210.255C109.724 212.203 110.161 214.146 110.641 216.073C111.125 218.005 111.656 219.922 112.234 221.823C112.813 223.729 113.438 225.615 114.104 227.49C114.776 229.365 115.49 231.219 116.25 233.057C117.016 234.891 117.818 236.708 118.672 238.51C119.521 240.307 120.417 242.083 121.354 243.839C122.292 245.594 123.271 247.323 124.292 249.026C125.318 250.734 126.38 252.417 127.484 254.068C128.589 255.724 129.734 257.349 130.922 258.948C132.104 260.542 133.328 262.109 134.589 263.651C135.849 265.188 137.151 266.693 138.484 268.167C139.823 269.641 141.193 271.078 142.599 272.484C144.005 273.891 145.448 275.266 146.922 276.599C148.396 277.938 149.901 279.234 151.438 280.495C152.974 281.76 154.542 282.979 156.141 284.167C157.74 285.349 159.365 286.495 161.016 287.604C162.672 288.708 164.354 289.771 166.057 290.792C167.766 291.818 169.495 292.797 171.25 293.734C173 294.672 174.781 295.568 176.578 296.417C178.375 297.266 180.193 298.073 182.031 298.833C183.87 299.594 185.724 300.313 187.599 300.979C189.469 301.651 191.359 302.276 193.26 302.854C195.167 303.427 197.083 303.958 199.01 304.443C200.938 304.927 202.88 305.359 204.833 305.75C206.781 306.135 208.74 306.479 210.708 306.771C212.677 307.063 214.651 307.307 216.63 307.5C218.609 307.693 220.594 307.839 222.578 307.938C224.568 308.036 226.552 308.083 228.542 308.083C230.531 308.083 232.521 308.036 234.505 307.938C236.495 307.839 238.479 307.693 240.458 307.5C242.438 307.307 244.411 307.063 246.375 306.771C248.344 306.479 250.302 306.135 252.255 305.75C254.203 305.359 256.146 304.927 258.073 304.443C260.005 303.958 261.922 303.427 263.823 302.854C265.729 302.276 267.615 301.651 269.49 300.979C271.365 300.313 273.219 299.594 275.057 298.833C276.891 298.073 278.708 297.266 280.51 296.417C282.307 295.568 284.083 294.672 285.839 293.734C287.594 292.797 289.323 291.818 291.026 290.792C292.734 289.771 294.417 288.708 296.068 287.604C297.724 286.495 299.349 285.349 300.948 284.167C302.542 282.979 304.109 281.76 305.651 280.495C307.188 279.234 308.693 277.938 310.167 276.599C311.641 275.266 313.078 273.891 314.484 272.484C315.891 271.078 317.266 269.641 318.599 268.167C319.938 266.693 321.234 265.188 322.495 263.651C323.76 262.109 324.979 260.542 326.167 258.948C327.349 257.349 328.495 255.724 329.604 254.068C330.708 252.417 331.771 250.734 332.792 249.026C333.818 247.323 334.797 245.594 335.734 243.839C336.672 242.083 337.568 240.307 338.417 238.51C339.266 236.708 340.073 234.891 340.833 233.057C341.594 231.219 342.313 229.365 342.979 227.49C343.651 225.615 344.276 223.729 344.854 221.823C345.427 219.922 345.958 218.005 346.443 216.073C346.927 214.146 347.359 212.203 347.75 210.255C348.135 208.302 348.479 206.344 348.771 204.375C349.063 202.411 349.307 200.438 349.5 198.458C349.693 196.474 349.844 194.495 349.938 192.505C350.036 190.521 350.083 188.531 350.083 186.542C350.083 184.552 350.031 182.568 349.932 180.583C349.833 178.594 349.682 176.615 349.49 174.635C349.292 172.656 349.047 170.682 348.75 168.714C348.458 166.75 348.115 164.792 347.729 162.839C347.339 160.891 346.901 158.953 346.417 157.021C345.932 155.094 345.401 153.177 344.823 151.276C344.245 149.375 343.62 147.484 342.948 145.615C342.276 143.745 341.557 141.891 340.797 140.052C340.036 138.214 339.229 136.396 338.375 134.599C337.526 132.802 336.63 131.026 335.693 129.276C334.755 127.521 333.776 125.792 332.75 124.089C331.729 122.38 330.667 120.703 329.557 119.052C328.453 117.396 327.307 115.771 326.125 114.177C324.938 112.578 323.719 111.01 322.453 109.474C321.193 107.938 319.896 106.432 318.557 104.958C317.224 103.484 315.854 102.047 314.448 100.641C313.042 99.2344 311.599 97.8646 310.125 96.526C308.656 95.1927 307.151 93.8906 305.609 92.6302C304.073 91.3698 302.51 90.1458 300.911 88.9635C299.313 87.776 297.688 86.6302 296.036 85.526C294.385 84.4219 292.703 83.3594 291 82.3333C289.292 81.3125 287.563 80.3281 285.813 79.3906C284.057 78.4531 282.281 77.5573 280.484 76.7083C278.688 75.8594 276.87 75.0521 275.036 74.2865C273.198 73.526 271.344 72.8125 269.469 72.1406C267.599 71.4688 265.714 70.8438 263.807 70.2656C261.906 69.6875 259.99 69.1562 258.063 68.6719C256.135 68.1875 254.193 67.75 252.245 67.3594C250.297 66.9687 248.339 66.625 246.37 66.3333C244.401 66.0417 242.432 65.7969 240.453 65.599C238.474 65.401 236.49 65.2552 234.505 65.151C232.521 65.0521 230.531 65.0052 228.542 65ZM228.542 296.51C225.901 296.516 223.266 296.422 220.635 296.24C218 296.052 215.375 295.771 212.766 295.396C210.151 295.021 207.552 294.552 204.974 293.99C202.396 293.427 199.839 292.776 197.307 292.026C194.776 291.281 192.271 290.443 189.802 289.516C187.328 288.589 184.896 287.573 182.495 286.474C180.099 285.37 177.74 284.182 175.427 282.911C173.115 281.635 170.854 280.281 168.635 278.844C166.422 277.411 164.26 275.896 162.156 274.302C160.052 272.714 158.005 271.047 156.016 269.307C154.031 267.568 152.109 265.76 150.255 263.88C148.401 262 146.615 260.057 144.901 258.052C143.188 256.047 141.547 253.979 139.979 251.854C138.411 249.729 136.927 247.552 135.516 245.318C134.109 243.083 132.781 240.807 131.536 238.479C130.292 236.151 129.135 233.781 128.063 231.365C126.99 228.953 126 226.505 125.104 224.026C124.208 221.542 123.401 219.031 122.688 216.49C121.969 213.948 121.349 211.385 120.818 208.797C120.286 206.214 119.849 203.609 119.505 200.995C119.161 198.375 118.917 195.75 118.76 193.115C118.609 190.479 118.552 187.839 118.589 185.203C118.625 182.563 118.755 179.927 118.984 177.297C119.208 174.667 119.531 172.047 119.948 169.443C120.365 166.833 120.87 164.245 121.474 161.677C122.078 159.104 122.771 156.557 123.557 154.042C124.344 151.521 125.219 149.031 126.182 146.573C127.151 144.115 128.203 141.698 129.344 139.318C130.484 136.938 131.708 134.599 133.016 132.307C134.323 130.016 135.714 127.771 137.188 125.578C138.656 123.385 140.203 121.25 141.828 119.167C143.453 117.089 145.151 115.068 146.922 113.109L301.979 268.161C296.995 272.682 291.635 276.708 285.906 280.24C280.177 283.771 274.177 286.745 267.896 289.172C261.62 291.594 255.172 293.422 248.557 294.656C241.943 295.891 235.271 296.505 228.542 296.51ZM310.161 259.979L155.104 104.927C156.396 103.76 157.714 102.625 159.057 101.521C160.401 100.417 161.771 99.349 163.167 98.3073C164.557 97.2708 165.979 96.2656 167.422 95.2917C168.865 94.3229 170.328 93.3854 171.818 92.4844C173.302 91.5833 174.813 90.7188 176.339 89.8854C177.865 89.0573 179.411 88.2656 180.979 87.5052C182.547 86.75 184.13 86.0313 185.729 85.349C187.328 84.6719 188.943 84.026 190.573 83.4219C192.203 82.8177 193.849 82.2552 195.505 81.724C197.161 81.1979 198.833 80.7135 200.516 80.2656C202.193 79.8177 203.885 79.4115 205.583 79.0469C207.286 78.6771 208.99 78.3542 210.708 78.0677C212.422 77.7813 214.146 77.5365 215.87 77.3333C217.599 77.1302 219.328 76.9688 221.063 76.849C222.797 76.724 224.536 76.6458 226.276 76.6042C228.01 76.5677 229.75 76.5677 231.49 76.6146C233.229 76.6563 234.964 76.7396 236.698 76.8698C238.432 76.9948 240.161 77.1615 241.891 77.3698C243.615 77.5781 245.339 77.8281 247.052 78.1198C248.766 78.4062 250.474 78.7396 252.172 79.1094C253.87 79.4844 255.563 79.8958 257.24 80.3438C258.917 80.7969 260.589 81.2865 262.245 81.8177C263.901 82.349 265.542 82.9219 267.172 83.5313C268.797 84.1354 270.411 84.7865 272.01 85.4688C273.609 86.1563 275.188 86.8802 276.755 87.6406C278.318 88.401 279.865 89.1979 281.391 90.0313C282.911 90.8646 284.422 91.7344 285.906 92.6406C287.391 93.5469 288.849 94.4896 290.292 95.4635C291.729 96.4375 293.146 97.4479 294.536 98.4896C295.932 99.5313 297.297 100.609 298.635 101.714C299.979 102.823 301.292 103.964 302.578 105.13C303.865 106.302 305.125 107.5 306.354 108.729C307.583 109.958 308.781 111.219 309.953 112.505C311.125 113.792 312.26 115.104 313.37 116.448C314.474 117.786 315.552 119.151 316.594 120.547C317.635 121.938 318.646 123.354 319.62 124.792C320.594 126.234 321.536 127.693 322.443 129.177C323.349 130.661 324.219 132.167 325.052 133.693C325.885 135.219 326.682 136.766 327.443 138.328C328.203 139.891 328.927 141.474 329.615 143.073C330.302 144.672 330.948 146.286 331.557 147.911C332.167 149.542 332.734 151.182 333.266 152.839C333.797 154.495 334.286 156.161 334.74 157.844C335.193 159.521 335.604 161.214 335.974 162.911C336.344 164.609 336.677 166.318 336.969 168.031C337.255 169.745 337.505 171.464 337.714 173.193C337.922 174.917 338.094 176.651 338.219 178.385C338.344 180.12 338.427 181.854 338.474 183.594C338.516 185.333 338.521 187.068 338.479 188.807C338.443 190.547 338.359 192.286 338.24 194.021C338.12 195.755 337.958 197.484 337.75 199.214C337.547 200.938 337.302 202.661 337.021 204.375C336.734 206.089 336.406 207.797 336.042 209.5C335.672 211.198 335.266 212.891 334.818 214.568C334.375 216.25 333.885 217.917 333.359 219.578C332.833 221.234 332.271 222.88 331.667 224.51C331.063 226.141 330.417 227.755 329.734 229.354C329.057 230.953 328.339 232.536 327.578 234.104C326.823 235.672 326.031 237.219 325.203 238.745C324.37 240.271 323.505 241.781 322.604 243.266C321.703 244.755 320.766 246.219 319.797 247.661C318.823 249.104 317.818 250.526 316.781 251.917C315.74 253.313 314.672 254.682 313.568 256.026C312.464 257.37 311.328 258.688 310.161 259.979Z" fill="#302CFF"/>
</g>
<path d="M188.767 206.974V225.787L122.788 199.308V181.745L188.767 155.266V173.995L147.226 189.724V191.266L188.767 206.974Z" fill="#302CFF"/>
<path d="M216.749 257.6H197.52L237.374 129.225H256.687L216.749 257.6Z" fill="#302CFF"/>
<path d="M334.058 199.308L268.079 225.787V206.974L309.704 191.266V189.724L268.079 173.995V155.266L334.058 181.745V199.308Z" fill="#302CFF"/>
</svg>
