<svg width="1204" height="1029" viewBox="0 0 1204 1029" fill="none" xmlns="http://www.w3.org/2000/svg">
<path d="M90.6426 845.981V964.937C90.6426 986.091 107.792 1003.24 128.946 1003.24H388.339C409.493 1003.24 426.643 986.091 426.643 964.937V928.931" stroke="#CECDDD" stroke-width="3.83036" stroke-linecap="round" stroke-dasharray="13.41 13.41"/>
<g filter="url(#filter0_d)">
<path d="M155.217 1015.24C161.844 1015.24 167.217 1009.87 167.217 1003.24C167.217 996.613 161.844 991.24 155.217 991.24C148.589 991.24 143.217 996.613 143.217 1003.24C143.217 1009.87 148.589 1015.24 155.217 1015.24Z" fill="#302CFF" fill-opacity="0.01"/>
</g>
<path d="M155.217 1015.24C161.844 1015.24 167.217 1009.87 167.217 1003.24C167.217 996.613 161.844 991.24 155.217 991.24C148.589 991.24 143.217 996.613 143.217 1003.24C143.217 1009.87 148.589 1015.24 155.217 1015.24Z" fill="#302CFF"/>
<path d="M800.092 482.305V329.606C800.092 308.451 817.241 291.302 838.395 291.302H949.191" stroke="#CECDDD" stroke-width="3.83036" stroke-linecap="round" stroke-dasharray="13.41 13.41"/>
<path d="M186.727 601.492V545.981C186.727 524.826 203.876 507.677 225.03 507.677H375.533" stroke="#CECDDD" stroke-width="3.83036" stroke-linecap="round" stroke-dasharray="13.41 13.41"/>
<path opacity="0.05" d="M759.503 433.219L740.708 426.553C738.016 425.596 735.556 424.085 733.486 422.117C731.416 420.149 729.782 417.768 728.69 415.129C727.599 412.489 727.073 409.65 727.149 406.794C727.224 403.939 727.898 401.131 729.128 398.553L737.679 380.545C740.798 373.968 741.807 366.588 740.567 359.416C739.326 352.244 735.898 345.631 730.751 340.485C725.604 335.338 718.991 331.909 711.819 330.669C704.647 329.429 697.267 330.437 690.691 333.556L672.683 342.123C670.103 343.347 667.295 344.016 664.44 344.087C661.586 344.157 658.748 343.629 656.111 342.535C653.474 341.441 651.095 339.805 649.129 337.735C647.163 335.664 645.653 333.204 644.698 330.513L638.017 311.733C635.572 304.877 631.067 298.945 625.118 294.751C619.17 290.556 612.07 288.305 604.791 288.305C597.512 288.305 590.412 290.556 584.464 294.751C578.515 298.945 574.01 304.877 571.565 311.733L564.885 330.528C563.927 333.217 562.416 335.676 560.45 337.745C558.483 339.814 556.104 341.448 553.467 342.54C550.83 343.633 547.993 344.16 545.139 344.088C542.285 344.017 539.478 343.347 536.899 342.123L518.891 333.556C512.315 330.437 504.935 329.429 497.763 330.669C490.591 331.909 483.978 335.338 478.831 340.485C473.684 345.631 470.256 352.244 469.015 359.416C467.775 366.588 468.784 373.968 471.903 380.545L480.454 398.553C481.681 401.132 482.354 403.939 482.428 406.794C482.502 409.648 481.976 412.487 480.885 415.126C479.794 417.765 478.161 420.145 476.092 422.113C474.023 424.082 471.564 425.594 468.874 426.553L450.079 433.234C443.222 435.674 437.288 440.178 433.091 446.125C428.895 452.073 426.643 459.173 426.643 466.452C426.643 473.731 428.895 480.831 433.091 486.779C437.288 492.726 443.222 497.23 450.079 499.67L468.874 506.351C471.564 507.308 474.022 508.819 476.091 510.786C478.16 512.753 479.793 515.132 480.884 517.77C481.976 520.408 482.502 523.245 482.427 526.099C482.353 528.952 481.681 531.759 480.454 534.336L471.903 552.345C468.784 558.921 467.775 566.301 469.015 573.473C470.256 580.645 473.684 587.258 478.831 592.404C483.978 597.551 490.591 600.98 497.763 602.22C504.935 603.46 512.315 602.452 518.891 599.333L536.899 590.781C539.478 589.552 542.285 588.879 545.14 588.805C547.995 588.73 550.834 589.257 553.473 590.35C556.111 591.443 558.49 593.079 560.456 595.151C562.422 597.222 563.931 599.684 564.885 602.376L571.565 621.157C574.01 628.012 578.515 633.944 584.464 638.139C590.412 642.333 597.512 644.585 604.791 644.585C612.07 644.585 619.17 642.333 625.118 638.139C631.067 633.944 635.572 628.012 638.017 621.157L644.698 602.361C645.655 599.672 647.165 597.213 649.132 595.144C651.099 593.076 653.478 591.443 656.116 590.351C658.754 589.26 661.591 588.734 664.445 588.808C667.299 588.882 670.105 589.554 672.683 590.781L690.691 599.333C697.267 602.452 704.647 603.46 711.819 602.22C718.991 600.98 725.604 597.551 730.751 592.404C735.898 587.258 739.326 580.645 740.567 573.473C741.807 566.301 740.798 558.921 737.679 552.345L729.128 534.336C727.901 531.759 727.229 528.952 727.155 526.099C727.08 523.245 727.606 520.408 728.698 517.77C729.789 515.132 731.422 512.753 733.491 510.786C735.56 508.819 738.018 507.308 740.708 506.351L759.503 499.655C766.36 497.215 772.294 492.712 776.491 486.764C780.687 480.816 782.939 473.716 782.939 466.437C782.939 459.158 780.687 452.058 776.491 446.11C772.294 440.163 766.36 435.66 759.503 433.219ZM604.791 537.469C590.769 537.265 577.1 533.038 565.412 525.289C553.723 517.541 544.507 506.598 538.859 493.762C531.638 476.275 531.646 456.638 538.882 439.157C546.118 421.677 559.991 407.779 577.459 400.513C594.966 393.511 614.516 393.629 631.937 400.841C649.358 408.052 663.272 421.786 670.708 439.113C677.93 456.599 677.921 476.236 670.685 493.717C663.449 511.198 649.576 525.095 632.108 532.362C623.45 535.923 614.151 537.661 604.791 537.469Z" fill="#302CFF"/>
<path d="M933.857 574.113H1124.21C1145.37 574.113 1162.52 591.262 1162.52 612.416V759.398C1162.52 780.553 1145.37 797.702 1124.21 797.702H986.322" stroke="#CECDDD" stroke-width="3.83036" stroke-linecap="round" stroke-dasharray="13.41 13.41"/>
<g filter="url(#filter1_ddd)">
<path d="M935.924 467.81H365.152C354.113 467.81 345.164 476.759 345.164 487.798V933.914C345.164 944.953 354.113 953.902 365.152 953.902H935.924C946.963 953.902 955.912 944.953 955.912 933.914V487.798C955.912 476.759 946.963 467.81 935.924 467.81Z" fill="white" fill-opacity="0.01"/>
</g>
<path d="M935.924 467.81H365.152C354.113 467.81 345.164 476.759 345.164 487.798V933.914C345.164 944.953 354.113 953.902 365.152 953.902H935.924C946.963 953.902 955.912 944.953 955.912 933.914V487.798C955.912 476.759 946.963 467.81 935.924 467.81Z" fill="white"/>
<path d="M527.722 797.984H386.762C377.563 797.984 370.105 805.442 370.105 814.641V915.754C370.105 924.953 377.563 932.411 386.762 932.411H527.722C536.921 932.411 544.379 924.953 544.379 915.754V814.641C544.379 805.442 536.921 797.984 527.722 797.984Z" fill="#F6F6FB"/>
<path opacity="0.4" d="M502.827 893.953H411.658C407.516 893.953 404.158 897.311 404.158 901.453C404.158 905.595 407.516 908.953 411.658 908.953H502.827C506.969 908.953 510.327 905.595 510.327 901.453C510.327 897.311 506.969 893.953 502.827 893.953Z" fill="#A0A0C7"/>
<path d="M721.032 797.984H580.073C570.874 797.984 563.416 805.442 563.416 814.641V915.754C563.416 924.953 570.874 932.411 580.073 932.411H721.032C730.231 932.411 737.689 924.953 737.689 915.754V814.641C737.689 805.442 730.231 797.984 721.032 797.984Z" fill="#F6F6FB"/>
<path d="M914.343 797.984H773.383C764.184 797.984 756.727 805.442 756.727 814.641V915.754C756.727 924.953 764.184 932.411 773.383 932.411H914.343C923.542 932.411 931 924.953 931 915.754V814.641C931 805.442 923.542 797.984 914.343 797.984Z" fill="#F6F6FB"/>
<g filter="url(#filter2_d)">
<path d="M843.863 883.174C862.838 883.174 878.22 867.792 878.22 848.817C878.22 829.842 862.838 814.46 843.863 814.46C824.888 814.46 809.506 829.842 809.506 848.817C809.506 867.792 824.888 883.174 843.863 883.174Z" fill="#302CFF" fill-opacity="0.01"/>
</g>
<path d="M843.863 883.174C862.838 883.174 878.22 867.792 878.22 848.817C878.22 829.842 862.838 814.46 843.863 814.46C824.888 814.46 809.506 829.842 809.506 848.817C809.506 867.792 824.888 883.174 843.863 883.174Z" fill="#302CFF"/>
<path d="M914.341 525.352H386.735C377.536 525.352 370.078 532.81 370.078 542.009V765.245C370.078 774.444 377.536 781.902 386.735 781.902H914.341C923.541 781.902 930.998 774.444 930.998 765.245V542.009C930.998 532.81 923.541 525.352 914.341 525.352Z" fill="#F6F6FB"/>
<path opacity="0.8" d="M565.897 581.358H409.105C404.135 581.358 400.105 585.387 400.105 590.358C400.105 595.329 404.135 599.358 409.105 599.358H565.897C570.868 599.358 574.897 595.329 574.897 590.358C574.897 585.387 570.868 581.358 565.897 581.358Z" fill="#50507E"/>
<path opacity="0.2" d="M530.762 613.998H407.605C403.463 613.998 400.105 617.356 400.105 621.498C400.105 625.64 403.463 628.998 407.605 628.998H530.762C534.904 628.998 538.262 625.64 538.262 621.498C538.262 617.356 534.904 613.998 530.762 613.998Z" fill="#A0A0C7"/>
<path opacity="0.2" d="M589.171 637.998H407.605C403.463 637.998 400.105 641.356 400.105 645.498C400.105 649.64 403.463 652.998 407.605 652.998H589.171C593.313 652.998 596.671 649.64 596.671 645.498C596.671 641.356 593.313 637.998 589.171 637.998Z" fill="#A0A0C7"/>
<path opacity="0.2" d="M563.395 661.998H407.605C403.463 661.998 400.105 665.356 400.105 669.498C400.105 673.64 403.463 676.998 407.605 676.998H563.395C567.538 676.998 570.895 673.64 570.895 669.498C570.895 665.356 567.538 661.998 563.395 661.998Z" fill="#A0A0C7"/>
<g filter="url(#filter3_d)">
<path d="M474.501 695.217H413.105C405.926 695.217 400.105 701.037 400.105 708.217C400.105 715.397 405.926 721.217 413.105 721.217H474.501C481.681 721.217 487.501 715.397 487.501 708.217C487.501 701.037 481.681 695.217 474.501 695.217Z" fill="#302CFF" fill-opacity="0.01"/>
</g>
<path d="M474.501 695.217H413.105C405.926 695.217 400.105 701.037 400.105 708.217C400.105 715.397 405.926 721.217 413.105 721.217H474.501C481.681 721.217 487.501 715.397 487.501 708.217C487.501 701.037 481.681 695.217 474.501 695.217Z" fill="#302CFF"/>
<path d="M880.999 557.062H654.029C642.984 557.062 634.029 566.016 634.029 577.062V725.513C634.029 736.559 642.984 745.513 654.029 745.513H880.999C892.045 745.513 900.999 736.559 900.999 725.513V577.062C900.999 566.016 892.045 557.062 880.999 557.062Z" fill="#302CFF"/>
<g filter="url(#filter4_d)">
<path d="M379.027 504.59C383.968 504.59 387.973 500.585 387.973 495.644C387.973 490.703 383.968 486.698 379.027 486.698C374.086 486.698 370.08 490.703 370.08 495.644C370.08 500.585 374.086 504.59 379.027 504.59Z" fill="#FF3C3C" fill-opacity="0.01"/>
</g>
<path d="M379.027 504.59C383.968 504.59 387.973 500.585 387.973 495.644C387.973 490.703 383.968 486.698 379.027 486.698C374.086 486.698 370.08 490.703 370.08 495.644C370.08 500.585 374.086 504.59 379.027 504.59Z" fill="#FF3C3C"/>
<g filter="url(#filter5_d)">
<path d="M404.87 504.59C409.811 504.59 413.817 500.585 413.817 495.644C413.817 490.703 409.811 486.698 404.87 486.698C399.929 486.698 395.924 490.703 395.924 495.644C395.924 500.585 399.929 504.59 404.87 504.59Z" fill="#FFDD2C" fill-opacity="0.01"/>
</g>
<path d="M404.87 504.59C409.811 504.59 413.817 500.585 413.817 495.644C413.817 490.703 409.811 486.698 404.87 486.698C399.929 486.698 395.924 490.703 395.924 495.644C395.924 500.585 399.929 504.59 404.87 504.59Z" fill="#FFDD2C"/>
<g filter="url(#filter6_d)">
<path d="M431.71 504.59C436.651 504.59 440.657 500.585 440.657 495.644C440.657 490.703 436.651 486.698 431.71 486.698C426.769 486.698 422.764 490.703 422.764 495.644C422.764 500.585 426.769 504.59 431.71 504.59Z" fill="#5AD86E" fill-opacity="0.01"/>
</g>
<path d="M431.71 504.59C436.651 504.59 440.657 500.585 440.657 495.644C440.657 490.703 436.651 486.698 431.71 486.698C426.769 486.698 422.764 490.703 422.764 495.644C422.764 500.585 426.769 504.59 431.71 504.59Z" fill="#5AD86E"/>
<path opacity="0.4" d="M704.493 893.953H596.611C592.469 893.953 589.111 897.311 589.111 901.453C589.111 905.595 592.469 908.953 596.611 908.953H704.493C708.635 908.953 711.993 905.595 711.993 901.453C711.993 897.311 708.635 893.953 704.493 893.953Z" fill="#A0A0C7"/>
<path opacity="0.4" d="M889.446 893.953H798.277C794.135 893.953 790.777 897.311 790.777 901.453C790.777 905.595 794.135 908.953 798.277 908.953H889.446C893.588 908.953 896.946 905.595 896.946 901.453C896.946 897.311 893.588 893.953 889.446 893.953Z" fill="#A0A0C7"/>
<g filter="url(#filter7_dd)">
<path d="M1032.63 701.155H783.438C772.392 701.155 763.438 710.109 763.438 721.155V888.952C763.438 899.998 772.392 908.952 783.438 908.952H1032.63C1043.68 908.952 1052.63 899.998 1052.63 888.952V721.155C1052.63 710.109 1043.68 701.155 1032.63 701.155Z" fill="white" fill-opacity="0.01"/>
</g>
<path d="M1032.63 701.155H783.438C772.392 701.155 763.438 710.109 763.438 721.155V888.952C763.438 899.998 772.392 908.952 783.438 908.952H1032.63C1043.68 908.952 1052.63 899.998 1052.63 888.952V721.155C1052.63 710.109 1043.68 701.155 1032.63 701.155Z" fill="white"/>
<g filter="url(#filter8_d)">
<path d="M792.165 730.841C795.339 730.841 797.911 728.268 797.911 725.095C797.911 721.922 795.339 719.349 792.165 719.349C788.992 719.349 786.42 721.922 786.42 725.095C786.42 728.268 788.992 730.841 792.165 730.841Z" fill="#FF3C3C" fill-opacity="0.01"/>
</g>
<path d="M792.165 730.841C795.339 730.841 797.911 728.268 797.911 725.095C797.911 721.922 795.339 719.349 792.165 719.349C788.992 719.349 786.42 721.922 786.42 725.095C786.42 728.268 788.992 730.841 792.165 730.841Z" fill="#FF3C3C"/>
<g filter="url(#filter9_d)">
<path d="M808.445 730.841C811.618 730.841 814.19 728.268 814.19 725.095C814.19 721.922 811.618 719.349 808.445 719.349C805.272 719.349 802.699 721.922 802.699 725.095C802.699 728.268 805.272 730.841 808.445 730.841Z" fill="#FFDD2C" fill-opacity="0.01"/>
</g>
<path d="M808.445 730.841C811.618 730.841 814.19 728.268 814.19 725.095C814.19 721.922 811.618 719.349 808.445 719.349C805.272 719.349 802.699 721.922 802.699 725.095C802.699 728.268 805.272 730.841 808.445 730.841Z" fill="#FFDD2C"/>
<g filter="url(#filter10_d)">
<path d="M825.681 730.841C828.854 730.841 831.427 728.268 831.427 725.095C831.427 721.922 828.854 719.349 825.681 719.349C822.508 719.349 819.936 721.922 819.936 725.095C819.936 728.268 822.508 730.841 825.681 730.841Z" fill="#5AD86E" fill-opacity="0.01"/>
</g>
<path d="M825.681 730.841C828.854 730.841 831.427 728.268 831.427 725.095C831.427 721.922 828.854 719.349 825.681 719.349C822.508 719.349 819.936 721.922 819.936 725.095C819.936 728.268 822.508 730.841 825.681 730.841Z" fill="#5AD86E"/>
<g filter="url(#filter11_d)">
<path d="M890.797 747.12H792.165C788.992 747.12 786.42 749.692 786.42 752.866C786.42 756.039 788.992 758.611 792.165 758.611H890.797C893.971 758.611 896.543 756.039 896.543 752.866C896.543 749.692 893.971 747.12 890.797 747.12Z" fill="#302CFF" fill-opacity="0.01"/>
</g>
<path d="M890.797 747.12H792.165C788.992 747.12 786.42 749.692 786.42 752.866C786.42 756.039 788.992 758.611 792.165 758.611H890.797C893.971 758.611 896.543 756.039 896.543 752.866C896.543 749.692 893.971 747.12 890.797 747.12Z" fill="#302CFF"/>
<path opacity="0.2" d="M988.608 768.187H792.165C788.992 768.187 786.42 770.759 786.42 773.933C786.42 777.106 788.992 779.678 792.165 779.678H988.608C991.782 779.678 994.354 777.106 994.354 773.933C994.354 770.759 991.782 768.187 988.608 768.187Z" fill="#A0A0C7"/>
<path opacity="0.2" d="M988.608 872.564H792.165C788.992 872.564 786.42 875.136 786.42 878.31C786.42 881.483 788.992 884.055 792.165 884.055H988.608C991.782 884.055 994.354 881.483 994.354 878.31C994.354 875.136 991.782 872.564 988.608 872.564Z" fill="#A0A0C7"/>
<path opacity="0.2" d="M914.579 830.43H792.165C788.992 830.43 786.42 833.002 786.42 836.176C786.42 839.349 788.992 841.921 792.165 841.921H914.579C917.753 841.921 920.325 839.349 920.325 836.176C920.325 833.002 917.753 830.43 914.579 830.43Z" fill="#A0A0C7"/>
<g filter="url(#filter12_d)">
<path d="M832.383 851.497H811.316C808.143 851.497 805.57 854.069 805.57 857.243C805.57 860.416 808.143 862.988 811.316 862.988H832.383C835.556 862.988 838.128 860.416 838.128 857.243C838.128 854.069 835.556 851.497 832.383 851.497Z" fill="#302CFF" fill-opacity="0.01"/>
</g>
<path d="M832.383 851.497H811.316C808.143 851.497 805.57 854.069 805.57 857.243C805.57 860.416 808.143 862.988 811.316 862.988H832.383C835.556 862.988 838.128 860.416 838.128 857.243C838.128 854.069 835.556 851.497 832.383 851.497Z" fill="#302CFF"/>
<path opacity="0.2" d="M1013.65 851.497H861.839C858.666 851.497 856.094 854.069 856.094 857.243C856.094 860.416 858.666 862.988 861.839 862.988H1013.65C1016.82 862.988 1019.39 860.416 1019.39 857.243C1019.39 854.069 1016.82 851.497 1013.65 851.497Z" fill="#A0A0C7"/>
<g filter="url(#filter13_d)">
<path d="M829.512 789.254H792.165C788.992 789.254 786.42 791.826 786.42 795C786.42 798.173 788.992 800.745 792.165 800.745H829.512C832.685 800.745 835.257 798.173 835.257 795C835.257 791.826 832.685 789.254 829.512 789.254Z" fill="#302CFF" fill-opacity="0.01"/>
</g>
<path d="M829.512 789.254H792.165C788.992 789.254 786.42 791.826 786.42 795C786.42 798.173 788.992 800.745 792.165 800.745H829.512C832.685 800.745 835.257 798.173 835.257 795C835.257 791.826 832.685 789.254 829.512 789.254Z" fill="#302CFF"/>
<path opacity="0.2" d="M946.15 789.254H858.574C855.4 789.254 852.828 791.826 852.828 795C852.828 798.173 855.4 800.745 858.574 800.745H946.15C949.324 800.745 951.896 798.173 951.896 795C951.896 791.826 949.324 789.254 946.15 789.254Z" fill="#A0A0C7"/>
<path opacity="0.2" d="M873.562 810.321H830.47C827.297 810.321 824.725 812.893 824.725 816.067C824.725 819.24 827.297 821.812 830.47 821.812H873.562C876.735 821.812 879.307 819.24 879.307 816.067C879.307 812.893 876.735 810.321 873.562 810.321Z" fill="#A0A0C7"/>
<g filter="url(#filter14_d)">
<path d="M1017.2 810.321H894.628C891.455 810.321 888.883 812.893 888.883 816.067C888.883 819.24 891.455 821.812 894.628 821.812H1017.2C1020.37 821.812 1022.95 819.24 1022.95 816.067C1022.95 812.893 1020.37 810.321 1017.2 810.321Z" fill="#302CFF" fill-opacity="0.01"/>
</g>
<path d="M1017.2 810.321H894.628C891.455 810.321 888.883 812.893 888.883 816.067C888.883 819.24 891.455 821.812 894.628 821.812H1017.2C1020.37 821.812 1022.95 819.24 1022.95 816.067C1022.95 812.893 1020.37 810.321 1017.2 810.321Z" fill="#302CFF"/>
<g filter="url(#filter15_d)">
<path d="M472.922 882.675C491.897 882.675 507.279 867.293 507.279 848.318C507.279 829.343 491.897 813.961 472.922 813.961C453.947 813.961 438.564 829.343 438.564 848.318C438.564 867.293 453.947 882.675 472.922 882.675Z" fill="#302CFF" fill-opacity="0.01"/>
</g>
<path d="M472.922 882.675C491.897 882.675 507.279 867.293 507.279 848.318C507.279 829.343 491.897 813.961 472.922 813.961C453.947 813.961 438.564 829.343 438.564 848.318C438.564 867.293 453.947 882.675 472.922 882.675Z" fill="#302CFF"/>
<g filter="url(#filter16_d)">
<path d="M666.23 882.675C685.205 882.675 700.587 867.293 700.587 848.318C700.587 829.343 685.205 813.961 666.23 813.961C647.255 813.961 631.873 829.343 631.873 848.318C631.873 867.293 647.255 882.675 666.23 882.675Z" fill="#302CFF" fill-opacity="0.01"/>
</g>
<path d="M666.23 882.675C685.205 882.675 700.587 867.293 700.587 848.318C700.587 829.343 685.205 813.961 666.23 813.961C647.255 813.961 631.873 829.343 631.873 848.318C631.873 867.293 647.255 882.675 666.23 882.675Z" fill="#302CFF"/>
<g filter="url(#filter17_ddd)">
<path d="M1088.98 46H888.099C869.327 46 854.109 61.2178 854.109 79.99V567.502C854.109 586.274 869.327 601.492 888.099 601.492H1088.98C1107.75 601.492 1122.97 586.274 1122.97 567.502V79.99C1122.97 61.2178 1107.75 46 1088.98 46Z" fill="white" fill-opacity="0.01"/>
</g>
<path d="M1088.98 46H888.099C869.327 46 854.109 61.2178 854.109 79.99V567.502C854.109 586.274 869.327 601.492 888.099 601.492H1088.98C1107.75 601.492 1122.97 586.274 1122.97 567.502V79.99C1122.97 61.2178 1107.75 46 1088.98 46Z" fill="white"/>
<path d="M1078.86 67.249H898.213C883.301 67.249 871.213 79.3373 871.213 94.249V553.244C871.213 568.156 883.301 580.244 898.213 580.244H1078.86C1093.78 580.244 1105.86 568.156 1105.86 553.244V94.249C1105.86 79.3373 1093.78 67.249 1078.86 67.249Z" fill="#F6F6FB"/>
<path opacity="0.1" d="M1075.31 375.292H901.768C892.379 375.292 884.768 382.903 884.768 392.292V543.369C884.768 552.758 892.379 560.369 901.768 560.369H1075.31C1084.7 560.369 1092.31 552.758 1092.31 543.369V392.292C1092.31 382.903 1084.7 375.292 1075.31 375.292Z" fill="#302CFF"/>
<g filter="url(#filter18_d)">
<path d="M988.245 486.51C998.562 486.51 1006.93 478.147 1006.93 467.83C1006.93 457.513 998.562 449.15 988.245 449.15C977.928 449.15 969.564 457.513 969.564 467.83C969.564 478.147 977.928 486.51 988.245 486.51Z" fill="#DDDDF7" fill-opacity="0.01"/>
<path d="M988.539 490.19C992.961 490.19 997.284 488.879 1000.96 486.422C1004.64 483.965 1007.5 480.473 1009.2 476.388C1010.89 472.302 1011.33 467.806 1010.47 463.469C1009.61 459.132 1007.48 455.148 1004.35 452.021C1001.22 448.894 997.238 446.764 992.901 445.901C988.564 445.039 984.068 445.481 979.983 447.174C975.897 448.866 972.405 451.732 969.948 455.409C967.491 459.086 966.18 463.409 966.18 467.831C966.186 473.759 968.544 479.442 972.736 483.634C976.928 487.826 982.611 490.184 988.539 490.19ZM976.873 465.887H986.109C986.238 465.887 986.361 465.836 986.452 465.744C986.544 465.653 986.595 465.53 986.595 465.401V456.165C986.595 455.65 986.8 455.155 987.164 454.79C987.529 454.426 988.023 454.221 988.539 454.221C989.055 454.221 989.549 454.426 989.914 454.79C990.279 455.155 990.483 455.65 990.483 456.165V465.401C990.483 465.53 990.535 465.653 990.626 465.744C990.717 465.836 990.841 465.887 990.969 465.887H1000.2C1000.72 465.887 1001.21 466.092 1001.58 466.456C1001.94 466.821 1002.15 467.315 1002.15 467.831C1002.15 468.347 1001.94 468.841 1001.58 469.206C1001.21 469.571 1000.72 469.775 1000.2 469.775H990.969C990.841 469.775 990.717 469.827 990.626 469.918C990.535 470.009 990.483 470.133 990.483 470.261V479.497C990.483 480.012 990.279 480.507 989.914 480.872C989.549 481.236 989.055 481.441 988.539 481.441C988.023 481.441 987.529 481.236 987.164 480.872C986.8 480.507 986.595 480.012 986.595 479.497V470.261C986.595 470.133 986.544 470.009 986.452 469.918C986.361 469.827 986.238 469.775 986.109 469.775H976.873C976.358 469.775 975.863 469.571 975.498 469.206C975.134 468.841 974.929 468.347 974.929 467.831C974.929 467.315 975.134 466.821 975.498 466.456C975.863 466.092 976.358 465.887 976.873 465.887Z" fill="#302CFF" fill-opacity="0.01"/>
</g>
<path d="M988.245 486.51C998.562 486.51 1006.93 478.147 1006.93 467.83C1006.93 457.513 998.562 449.15 988.245 449.15C977.928 449.15 969.564 457.513 969.564 467.83C969.564 478.147 977.928 486.51 988.245 486.51Z" fill="#DDDDF7"/>
<path d="M988.539 490.19C992.961 490.19 997.284 488.879 1000.96 486.422C1004.64 483.965 1007.5 480.473 1009.2 476.388C1010.89 472.302 1011.33 467.806 1010.47 463.469C1009.61 459.132 1007.48 455.148 1004.35 452.021C1001.22 448.894 997.238 446.764 992.901 445.901C988.564 445.039 984.068 445.481 979.983 447.174C975.897 448.866 972.405 451.732 969.948 455.409C967.491 459.086 966.18 463.409 966.18 467.831C966.186 473.759 968.544 479.442 972.736 483.634C976.928 487.826 982.611 490.184 988.539 490.19ZM976.873 465.887H986.109C986.238 465.887 986.361 465.836 986.452 465.744C986.544 465.653 986.595 465.53 986.595 465.401V456.165C986.595 455.65 986.8 455.155 987.164 454.79C987.529 454.426 988.023 454.221 988.539 454.221C989.055 454.221 989.549 454.426 989.914 454.79C990.279 455.155 990.483 455.65 990.483 456.165V465.401C990.483 465.53 990.535 465.653 990.626 465.744C990.717 465.836 990.841 465.887 990.969 465.887H1000.2C1000.72 465.887 1001.21 466.092 1001.58 466.456C1001.94 466.821 1002.15 467.315 1002.15 467.831C1002.15 468.347 1001.94 468.841 1001.58 469.206C1001.21 469.571 1000.72 469.775 1000.2 469.775H990.969C990.841 469.775 990.717 469.827 990.626 469.918C990.535 470.009 990.483 470.133 990.483 470.261V479.497C990.483 480.012 990.279 480.507 989.914 480.872C989.549 481.236 989.055 481.441 988.539 481.441C988.023 481.441 987.529 481.236 987.164 480.872C986.8 480.507 986.595 480.012 986.595 479.497V470.261C986.595 470.133 986.544 470.009 986.452 469.918C986.361 469.827 986.238 469.775 986.109 469.775H976.873C976.358 469.775 975.863 469.571 975.498 469.206C975.134 468.841 974.929 468.347 974.929 467.831C974.929 467.315 975.134 466.821 975.498 466.456C975.863 466.092 976.358 465.887 976.873 465.887Z" fill="#302CFF"/>
<g filter="url(#filter19_d)">
<path d="M967.828 308.344H899.96C891.569 308.344 884.768 315.146 884.768 323.536C884.768 331.927 891.569 338.728 899.96 338.728H967.828C976.219 338.728 983.021 331.927 983.021 323.536C983.021 315.146 976.219 308.344 967.828 308.344Z" fill="#302CFF" fill-opacity="0.01"/>
</g>
<path d="M967.828 308.344H899.96C891.569 308.344 884.768 315.146 884.768 323.536C884.768 331.927 891.569 338.728 899.96 338.728H967.828C976.219 338.728 983.021 331.927 983.021 323.536C983.021 315.146 976.219 308.344 967.828 308.344Z" fill="#302CFF"/>
<path opacity="0.8" d="M1082.54 223.59H894.534C889.14 223.59 884.768 227.963 884.768 233.356C884.768 238.75 889.14 243.123 894.534 243.123H1082.54C1087.94 243.123 1092.31 238.75 1092.31 233.356C1092.31 227.963 1087.94 223.59 1082.54 223.59Z" fill="#50507E"/>
<path opacity="0.4" d="M1021.42 255.715H891.821C887.926 255.715 884.768 258.873 884.768 262.769V262.769C884.768 266.664 887.926 269.822 891.821 269.822H1021.42C1025.31 269.822 1028.47 266.664 1028.47 262.769C1028.47 258.873 1025.31 255.715 1021.42 255.715Z" fill="#A0A0C7"/>
<path opacity="0.4" d="M1082.17 279.588H891.821C887.926 279.588 884.768 282.746 884.768 286.642V286.642C884.768 290.537 887.926 293.695 891.821 293.695H1082.17C1086.07 293.695 1089.23 290.537 1089.23 286.642C1089.23 282.746 1086.07 279.588 1082.17 279.588Z" fill="#A0A0C7"/>
<path d="M1036.9 57.0862H940.182C934.569 57.0862 930.02 61.6361 930.02 67.2487C930.02 72.8613 934.569 77.4112 940.182 77.4112H1036.9C1042.51 77.4112 1047.06 72.8613 1047.06 67.2487C1047.06 61.6361 1042.51 57.0862 1036.9 57.0862Z" fill="white"/>
<g filter="url(#filter20_d)">
<path d="M1075.31 98.5586H901.768C892.379 98.5586 884.768 106.17 884.768 115.559V190.426C884.768 199.814 892.379 207.426 901.768 207.426H1075.31C1084.7 207.426 1092.31 199.814 1092.31 190.426V115.559C1092.31 106.17 1084.7 98.5586 1075.31 98.5586Z" fill="#302CFF" fill-opacity="0.01"/>
</g>
<path d="M1075.31 98.5586H901.768C892.379 98.5586 884.768 106.17 884.768 115.559V190.426C884.768 199.814 892.379 207.426 901.768 207.426H1075.31C1084.7 207.426 1092.31 199.814 1092.31 190.426V115.559C1092.31 106.17 1084.7 98.5586 1075.31 98.5586Z" fill="#302CFF"/>
<g filter="url(#filter21_d)">
<path d="M275.74 520.472C282.368 520.472 287.74 515.099 287.74 508.472C287.74 501.845 282.368 496.472 275.74 496.472C269.113 496.472 263.74 501.845 263.74 508.472C263.74 515.099 269.113 520.472 275.74 520.472Z" fill="#302CFF" fill-opacity="0.01"/>
</g>
<path d="M275.74 520.472C282.368 520.472 287.74 515.099 287.74 508.472C287.74 501.845 282.368 496.472 275.74 496.472C269.113 496.472 263.74 501.845 263.74 508.472C263.74 515.099 269.113 520.472 275.74 520.472Z" fill="#302CFF"/>
<g filter="url(#filter22_d)">
<path d="M800.092 417.502C806.719 417.502 812.092 412.129 812.092 405.502C812.092 398.875 806.719 393.502 800.092 393.502C793.464 393.502 788.092 398.875 788.092 405.502C788.092 412.129 793.464 417.502 800.092 417.502Z" fill="#302CFF" fill-opacity="0.01"/>
</g>
<path d="M800.092 417.502C806.719 417.502 812.092 412.129 812.092 405.502C812.092 398.875 806.719 393.502 800.092 393.502C793.464 393.502 788.092 398.875 788.092 405.502C788.092 412.129 793.464 417.502 800.092 417.502Z" fill="#302CFF"/>
<g filter="url(#filter23_dd)">
<path d="M1153.08 340.426H1020.53C1011.33 340.426 1003.87 347.884 1003.87 357.083V486.769C1003.87 495.968 1011.33 503.426 1020.53 503.426H1153.08C1162.28 503.426 1169.74 495.968 1169.74 486.769V357.083C1169.74 347.884 1162.28 340.426 1153.08 340.426Z" fill="white" fill-opacity="0.01"/>
</g>
<path d="M1153.08 340.426H1020.53C1011.33 340.426 1003.87 347.884 1003.87 357.083V486.769C1003.87 495.968 1011.33 503.426 1020.53 503.426H1153.08C1162.28 503.426 1169.74 495.968 1169.74 486.769V357.083C1169.74 347.884 1162.28 340.426 1153.08 340.426Z" fill="white"/>
<path opacity="0.4" d="M1134.45 455.892H1039.16C1034.83 455.892 1031.32 459.402 1031.32 463.731C1031.32 468.061 1034.83 471.571 1039.16 471.571H1134.45C1138.78 471.571 1142.29 468.061 1142.29 463.731C1142.29 459.402 1138.78 455.892 1134.45 455.892Z" fill="#A0A0C7"/>
<g filter="url(#filter24_d)">
<path d="M1086.81 444.104C1106.64 444.104 1122.72 428.026 1122.72 408.192C1122.72 388.358 1106.64 372.28 1086.81 372.28C1066.98 372.28 1050.9 388.358 1050.9 408.192C1050.9 428.026 1066.98 444.104 1086.81 444.104Z" fill="#302CFF" fill-opacity="0.01"/>
</g>
<path d="M1086.81 444.104C1106.64 444.104 1122.72 428.026 1122.72 408.192C1122.72 388.358 1106.64 372.28 1086.81 372.28C1066.98 372.28 1050.9 388.358 1050.9 408.192C1050.9 428.026 1066.98 444.104 1086.81 444.104Z" fill="#302CFF"/>
<g filter="url(#filter25_dd)">
<path d="M378.057 590.358H78C66.9543 590.358 58 599.312 58 610.358V850.957C58 862.003 66.9543 870.957 78 870.957H378.057C389.103 870.957 398.057 862.003 398.057 850.957V610.358C398.057 599.312 389.103 590.358 378.057 590.358Z" fill="white" fill-opacity="0.01"/>
</g>
<path d="M378.057 590.358H78C66.9543 590.358 58 599.312 58 610.358V850.957C58 862.003 66.9543 870.957 78 870.957H378.057C389.103 870.957 398.057 862.003 398.057 850.957V610.358C398.057 599.312 389.103 590.358 378.057 590.358Z" fill="white"/>
<g filter="url(#filter26_d)">
<path d="M221.537 628.998H174.181C171.008 628.998 168.436 631.57 168.436 634.744C168.436 637.917 171.008 640.489 174.181 640.489H221.537C224.71 640.489 227.282 637.917 227.282 634.744C227.282 631.57 224.71 628.998 221.537 628.998Z" fill="#302CFF" fill-opacity="0.01"/>
</g>
<path d="M221.537 628.998H174.181C171.008 628.998 168.436 631.57 168.436 634.744C168.436 637.917 171.008 640.489 174.181 640.489H221.537C224.71 640.489 227.282 637.917 227.282 634.744C227.282 631.57 224.71 628.998 221.537 628.998Z" fill="#302CFF"/>
<path opacity="0.2" d="M339.958 650.065H197.162C193.988 650.065 191.416 652.637 191.416 655.811C191.416 658.984 193.988 661.556 197.162 661.556H339.958C343.132 661.556 345.704 658.984 345.704 655.811C345.704 652.637 343.132 650.065 339.958 650.065Z" fill="#A0A0C7"/>
<g filter="url(#filter27_d)">
<path d="M204.325 671.132H174.181C171.008 671.132 168.436 673.704 168.436 676.878C168.436 680.051 171.008 682.623 174.181 682.623H204.325C207.498 682.623 210.07 680.051 210.07 676.878C210.07 673.704 207.498 671.132 204.325 671.132Z" fill="#302CFF" fill-opacity="0.01"/>
</g>
<path d="M204.325 671.132H174.181C171.008 671.132 168.436 673.704 168.436 676.878C168.436 680.051 171.008 682.623 174.181 682.623H204.325C207.498 682.623 210.07 680.051 210.07 676.878C210.07 673.704 207.498 671.132 204.325 671.132Z" fill="#302CFF"/>
<path opacity="0.2" d="M296.781 671.132H223.814C220.641 671.132 218.068 673.704 218.068 676.878C218.068 680.051 220.641 682.623 223.814 682.623H296.781C299.954 682.623 302.526 680.051 302.526 676.878C302.526 673.704 299.954 671.132 296.781 671.132Z" fill="#A0A0C7"/>
<path opacity="0.2" d="M369.787 628.998H241.472C238.299 628.998 235.727 631.57 235.727 634.744C235.727 637.917 238.299 640.489 241.472 640.489H369.787C372.96 640.489 375.533 637.917 375.533 634.744C375.533 631.57 372.96 628.998 369.787 628.998Z" fill="#A0A0C7"/>
<path opacity="0.2" d="M125.993 628.998H78.9819C75.8087 628.998 73.2363 631.57 73.2363 634.744C73.2363 637.917 75.8087 640.489 78.9819 640.489H125.993C129.166 640.489 131.739 637.917 131.739 634.744C131.739 631.57 129.166 628.998 125.993 628.998Z" fill="#A0A0C7"/>
<path opacity="0.2" d="M120.719 706.962H78.9819C75.8087 706.962 73.2363 709.534 73.2363 712.708C73.2363 715.881 75.8087 718.453 78.9819 718.453H120.719C123.892 718.453 126.465 715.881 126.465 712.708C126.465 709.534 123.892 706.962 120.719 706.962Z" fill="#A0A0C7"/>
<path opacity="0.2" d="M115.687 648.489H78.9819C75.8087 648.489 73.2363 651.061 73.2363 654.235C73.2363 657.408 75.8087 659.98 78.9819 659.98H115.687C118.86 659.98 121.432 657.408 121.432 654.235C121.432 651.061 118.86 648.489 115.687 648.489Z" fill="#A0A0C7"/>
<path opacity="0.2" d="M103.065 726.454H78.9819C75.8087 726.454 73.2363 729.026 73.2363 732.2C73.2363 735.373 75.8087 737.945 78.9819 737.945H103.065C106.238 737.945 108.811 735.373 108.811 732.2C108.811 729.026 106.238 726.454 103.065 726.454Z" fill="#A0A0C7"/>
<path opacity="0.2" d="M130.096 667.98H78.9819C75.8087 667.98 73.2363 670.552 73.2363 673.726C73.2363 676.899 75.8087 679.471 78.9819 679.471H130.096C133.269 679.471 135.842 676.899 135.842 673.726C135.842 670.552 133.269 667.98 130.096 667.98Z" fill="#A0A0C7"/>
<g filter="url(#filter28_d)">
<path d="M98.9932 687.471H78.9819C75.8087 687.471 73.2363 690.043 73.2363 693.217C73.2363 696.39 75.8087 698.962 78.9819 698.962H98.9932C102.166 698.962 104.739 696.39 104.739 693.217C104.739 690.043 102.166 687.471 98.9932 687.471Z" fill="#302CFF" fill-opacity="0.01"/>
</g>
<path d="M98.9932 687.471H78.9819C75.8087 687.471 73.2363 690.043 73.2363 693.217C73.2363 696.39 75.8087 698.962 78.9819 698.962H98.9932C102.166 698.962 104.739 696.39 104.739 693.217C104.739 690.043 102.166 687.471 98.9932 687.471Z" fill="#302CFF"/>
<g filter="url(#filter29_d)">
<path d="M122.973 834.49H78.9819C75.8087 834.49 73.2363 837.062 73.2363 840.236C73.2363 843.409 75.8087 845.981 78.9819 845.981H122.973C126.146 845.981 128.718 843.409 128.718 840.236C128.718 837.062 126.146 834.49 122.973 834.49Z" fill="#302CFF" fill-opacity="0.01"/>
</g>
<path d="M122.973 834.49H78.9819C75.8087 834.49 73.2363 837.062 73.2363 840.236C73.2363 843.409 75.8087 845.981 78.9819 845.981H122.973C126.146 845.981 128.718 843.409 128.718 840.236C128.718 837.062 126.146 834.49 122.973 834.49Z" fill="#302CFF"/>
<path opacity="0.2" d="M261.307 713.69H191.63C188.457 713.69 185.885 716.262 185.885 719.436C185.885 722.609 188.457 725.181 191.63 725.181H261.307C264.48 725.181 267.053 722.609 267.053 719.436C267.053 716.262 264.48 713.69 261.307 713.69Z" fill="#A0A0C7"/>
<path opacity="0.2" d="M296.783 734.757H174.181C171.008 734.757 168.436 737.329 168.436 740.503C168.436 743.676 171.008 746.248 174.181 746.248H296.783C299.956 746.248 302.529 743.676 302.529 740.503C302.529 737.329 299.956 734.757 296.783 734.757Z" fill="#A0A0C7"/>
<g filter="url(#filter30_d)">
<path d="M369.788 734.757H316.615C313.442 734.757 310.869 737.329 310.869 740.503C310.869 743.676 313.442 746.248 316.615 746.248H369.788C372.961 746.248 375.533 743.676 375.533 740.503C375.533 737.329 372.961 734.757 369.788 734.757Z" fill="#302CFF" fill-opacity="0.01"/>
</g>
<path d="M369.788 734.757H316.615C313.442 734.757 310.869 737.329 310.869 740.503C310.869 743.676 313.442 746.248 316.615 746.248H369.788C372.961 746.248 375.533 743.676 375.533 740.503C375.533 737.329 372.961 734.757 369.788 734.757Z" fill="#302CFF"/>
<path opacity="0.2" d="M321.068 713.69H280.798C277.625 713.69 275.053 716.262 275.053 719.436C275.053 722.609 277.625 725.181 280.798 725.181H321.068C324.241 725.181 326.813 722.609 326.813 719.436C326.813 716.262 324.241 713.69 321.068 713.69Z" fill="#A0A0C7"/>
<path opacity="0.2" d="M241.877 692.199H206.835C203.662 692.199 201.09 694.771 201.09 697.945C201.09 701.118 203.662 703.69 206.835 703.69H241.877C245.051 703.69 247.623 701.118 247.623 697.945C247.623 694.771 245.051 692.199 241.877 692.199Z" fill="#A0A0C7"/>
<g filter="url(#filter31_d)">
<path d="M364.334 692.199H261.533C258.359 692.199 255.787 694.771 255.787 697.945C255.787 701.118 258.359 703.69 261.533 703.69H364.334C367.507 703.69 370.079 701.118 370.079 697.945C370.079 694.771 367.507 692.199 364.334 692.199Z" fill="#302CFF" fill-opacity="0.01"/>
</g>
<path d="M364.334 692.199H261.533C258.359 692.199 255.787 694.771 255.787 697.945C255.787 701.118 258.359 703.69 261.533 703.69H364.334C367.507 703.69 370.079 701.118 370.079 697.945C370.079 694.771 367.507 692.199 364.334 692.199Z" fill="#302CFF"/>
<g filter="url(#filter32_d)">
<path d="M1162.52 697.907C1169.15 697.907 1174.52 692.534 1174.52 685.907C1174.52 679.28 1169.15 673.907 1162.52 673.907C1155.89 673.907 1150.52 679.28 1150.52 685.907C1150.52 692.534 1155.89 697.907 1162.52 697.907Z" fill="#302CFF" fill-opacity="0.01"/>
</g>
<path d="M1162.52 697.907C1169.15 697.907 1174.52 692.534 1174.52 685.907C1174.52 679.28 1169.15 673.907 1162.52 673.907C1155.89 673.907 1150.52 679.28 1150.52 685.907C1150.52 692.534 1155.89 697.907 1162.52 697.907Z" fill="#302CFF"/>
<g filter="url(#filter33_dd)">
<path d="M882.036 175.142H816.749C807.549 175.142 800.092 182.6 800.092 191.799V255.382C800.092 264.581 807.549 272.039 816.749 272.039H882.036C891.236 272.039 898.693 264.581 898.693 255.382V191.799C898.693 182.6 891.236 175.142 882.036 175.142Z" fill="white" fill-opacity="0.01"/>
</g>
<path d="M882.036 175.142H816.749C807.549 175.142 800.092 182.6 800.092 191.799V255.382C800.092 264.581 807.549 272.039 816.749 272.039H882.036C891.236 272.039 898.693 264.581 898.693 255.382V191.799C898.693 182.6 891.236 175.142 882.036 175.142Z" fill="white"/>
<g filter="url(#filter34_d)">
<path d="M869.739 187.244H829.045C820.208 187.244 813.045 194.407 813.045 203.244V243.938C813.045 252.774 820.208 259.938 829.045 259.938H869.739C878.575 259.938 885.739 252.774 885.739 243.938V203.244C885.739 194.407 878.575 187.244 869.739 187.244Z" fill="#302CFF" fill-opacity="0.01"/>
</g>
<path d="M869.739 187.244H829.045C820.208 187.244 813.045 194.407 813.045 203.244V243.938C813.045 252.774 820.208 259.938 829.045 259.938H869.739C878.575 259.938 885.739 252.774 885.739 243.938V203.244C885.739 194.407 878.575 187.244 869.739 187.244Z" fill="#302CFF"/>
<path d="M856.391 210.254L869.727 223.59L856.391 236.927" stroke="white" stroke-width="7" stroke-linecap="round" stroke-linejoin="round"/>
<path d="M842.391 210.254L829.055 223.59L842.391 236.927" stroke="white" stroke-width="7" stroke-linecap="round" stroke-linejoin="round"/>
<g filter="url(#filter35_dd)">
<path d="M294.212 835.225H228.924C219.725 835.225 212.268 842.683 212.268 851.882V913.468C212.268 922.667 219.725 930.125 228.924 930.125H294.212C303.412 930.125 310.869 922.667 310.869 913.468V851.882C310.869 842.683 303.412 835.225 294.212 835.225Z" fill="white" fill-opacity="0.01"/>
</g>
<path d="M294.212 835.225H228.924C219.725 835.225 212.268 842.683 212.268 851.882V913.468C212.268 922.667 219.725 930.125 228.924 930.125H294.212C303.412 930.125 310.869 922.667 310.869 913.468V851.882C310.869 842.683 303.412 835.225 294.212 835.225Z" fill="white"/>
<g filter="url(#filter36_d)">
<path d="M283.439 844.802H239.693C230.857 844.802 223.693 851.965 223.693 860.802V904.548C223.693 913.385 230.857 920.548 239.693 920.548H283.439C292.276 920.548 299.439 913.385 299.439 904.548V860.802C299.439 851.965 292.276 844.802 283.439 844.802Z" fill="#302CFF" fill-opacity="0.01"/>
</g>
<path d="M283.439 844.802H239.693C230.857 844.802 223.693 851.965 223.693 860.802V904.548C223.693 913.385 230.857 920.548 239.693 920.548H283.439C292.276 920.548 299.439 913.385 299.439 904.548V860.802C299.439 851.965 292.276 844.802 283.439 844.802Z" fill="#302CFF"/>
<path d="M284.81 888.643C284.321 887.888 283.626 887.132 282.725 886.654C282.005 886.301 281.541 885.722 281.13 885.042C279.817 882.877 280.589 880.031 282.777 878.747C285.35 877.311 286.174 874.113 284.681 871.62L282.957 868.649C281.49 866.156 278.273 865.275 275.725 866.735C273.461 867.944 270.553 867.138 269.24 864.998C268.829 864.293 268.597 863.537 268.649 862.782C268.726 861.8 268.417 860.868 267.954 860.113C267.002 858.551 265.277 857.494 263.373 857.494H259.744C257.866 857.544 256.142 858.551 255.189 860.113C254.701 860.868 254.417 861.8 254.469 862.782C254.52 863.537 254.289 864.293 253.877 864.998C252.565 867.138 249.657 867.944 247.418 866.735C244.844 865.275 241.653 866.156 240.161 868.649L238.436 871.62C236.97 874.113 237.793 877.311 240.341 878.747C242.528 880.031 243.3 882.877 242.013 885.042C241.576 885.722 241.113 886.301 240.392 886.654C239.517 887.132 238.745 887.888 238.333 888.643C237.381 890.204 237.433 892.169 238.385 893.805L240.161 896.827C241.113 898.439 242.888 899.446 244.741 899.446C245.616 899.446 246.646 899.194 247.469 898.69C248.113 898.262 248.885 898.111 249.734 898.111C252.281 898.111 254.417 900.201 254.469 902.694C254.469 905.59 256.836 907.857 259.822 907.857H263.322C266.281 907.857 268.649 905.59 268.649 902.694C268.726 900.201 270.862 898.111 273.409 898.111C274.233 898.111 275.005 898.262 275.674 898.69C276.498 899.194 277.501 899.446 278.402 899.446C280.229 899.446 282.005 898.439 282.957 896.827L284.758 893.805C285.685 892.118 285.762 890.204 284.81 888.643Z" fill="white"/>
<path d="M261.596 889.801C257.555 889.801 254.287 886.654 254.287 882.7C254.287 878.747 257.555 875.574 261.596 875.574C265.636 875.574 268.827 878.747 268.827 882.7C268.827 886.654 265.636 889.801 261.596 889.801Z" fill="#302CFF"/>
<g filter="url(#filter37_d)">
<path d="M426.564 965.903C433.192 965.903 438.564 960.53 438.564 953.903C438.564 947.276 433.192 941.903 426.564 941.903C419.937 941.903 414.564 947.276 414.564 953.903C414.564 960.53 419.937 965.903 426.564 965.903Z" fill="#302CFF" fill-opacity="0.01"/>
</g>
<path d="M426.564 965.903C433.192 965.903 438.564 960.53 438.564 953.903C438.564 947.276 433.192 941.903 426.564 941.903C419.937 941.903 414.564 947.276 414.564 953.903C414.564 960.53 419.937 965.903 426.564 965.903Z" fill="#302CFF"/>
<path opacity="0.11" d="M147.432 615.094V846.222" stroke="#A0A0C7" stroke-width="3" stroke-linecap="round"/>
<defs>
<filter id="filter0_d" x="134.217" y="986.24" width="42" height="42" filterUnits="userSpaceOnUse" color-interpolation-filters="sRGB">
<feFlood flood-opacity="0" result="BackgroundImageFix"/>
<feColorMatrix in="SourceAlpha" type="matrix" values="0 0 0 0 0 0 0 0 0 0 0 0 0 0 0 0 0 0 127 0"/>
<feOffset dy="4"/>
<feGaussianBlur stdDeviation="4.5"/>
<feColorMatrix type="matrix" values="0 0 0 0 0.187417 0 0 0 0 0.170833 0 0 0 0 1 0 0 0 0.23 0"/>
<feBlend mode="normal" in2="BackgroundImageFix" result="effect1_dropShadow"/>
<feBlend mode="normal" in="SourceGraphic" in2="effect1_dropShadow" result="shape"/>
</filter>
<filter id="filter1_ddd" x="326.844" y="456.81" width="647.388" height="522.742" filterUnits="userSpaceOnUse" color-interpolation-filters="sRGB">
<feFlood flood-opacity="0" result="BackgroundImageFix"/>
<feColorMatrix in="SourceAlpha" type="matrix" values="0 0 0 0 0 0 0 0 0 0 0 0 0 0 0 0 0 0 127 0"/>
<feOffset dy="7.33"/>
<feGaussianBlur stdDeviation="9.16"/>
<feColorMatrix type="matrix" values="0 0 0 0 0.187417 0 0 0 0 0.170833 0 0 0 0 1 0 0 0 0.04 0"/>
<feBlend mode="normal" in2="BackgroundImageFix" result="effect1_dropShadow"/>
<feColorMatrix in="SourceAlpha" type="matrix" values="0 0 0 0 0 0 0 0 0 0 0 0 0 0 0 0 0 0 127 0"/>
<feOffset dy="5.66"/>
<feGaussianBlur stdDeviation="6.16"/>
<feColorMatrix type="matrix" values="0 0 0 0 0.0280847 0 0 0 0 0.0263715 0 0 0 0 0.129167 0 0 0 0.02 0"/>
<feBlend mode="normal" in2="effect1_dropShadow" result="effect2_dropShadow"/>
<feColorMatrix in="SourceAlpha" type="matrix" values="0 0 0 0 0 0 0 0 0 0 0 0 0 0 0 0 0 0 127 0"/>
<feOffset dy="-4"/>
<feGaussianBlur stdDeviation="3.5"/>
<feColorMatrix type="matrix" values="0 0 0 0 0.0280847 0 0 0 0 0.0263715 0 0 0 0 0.129167 0 0 0 0.02 0"/>
<feBlend mode="normal" in2="effect2_dropShadow" result="effect3_dropShadow"/>
<feBlend mode="normal" in="SourceGraphic" in2="effect3_dropShadow" result="shape"/>
</filter>
<filter id="filter2_d" x="795.506" y="805.46" width="96.7144" height="96.7144" filterUnits="userSpaceOnUse" color-interpolation-filters="sRGB">
<feFlood flood-opacity="0" result="BackgroundImageFix"/>
<feColorMatrix in="SourceAlpha" type="matrix" values="0 0 0 0 0 0 0 0 0 0 0 0 0 0 0 0 0 0 127 0"/>
<feOffset dy="5"/>
<feGaussianBlur stdDeviation="7"/>
<feColorMatrix type="matrix" values="0 0 0 0 0.187417 0 0 0 0 0.170833 0 0 0 0 1 0 0 0 0.13 0"/>
<feBlend mode="normal" in2="BackgroundImageFix" result="effect1_dropShadow"/>
<feBlend mode="normal" in="SourceGraphic" in2="effect1_dropShadow" result="shape"/>
</filter>
<filter id="filter3_d" x="386.105" y="686.217" width="115.396" height="54" filterUnits="userSpaceOnUse" color-interpolation-filters="sRGB">
<feFlood flood-opacity="0" result="BackgroundImageFix"/>
<feColorMatrix in="SourceAlpha" type="matrix" values="0 0 0 0 0 0 0 0 0 0 0 0 0 0 0 0 0 0 127 0"/>
<feOffset dy="5"/>
<feGaussianBlur stdDeviation="7"/>
<feColorMatrix type="matrix" values="0 0 0 0 0.187417 0 0 0 0 0.170833 0 0 0 0 1 0 0 0 0.18 0"/>
<feBlend mode="normal" in2="BackgroundImageFix" result="effect1_dropShadow"/>
<feBlend mode="normal" in="SourceGraphic" in2="effect1_dropShadow" result="shape"/>
</filter>
<filter id="filter4_d" x="365.916" y="484.199" width="26.2214" height="26.2214" filterUnits="userSpaceOnUse" color-interpolation-filters="sRGB">
<feFlood flood-opacity="0" result="BackgroundImageFix"/>
<feColorMatrix in="SourceAlpha" type="matrix" values="0 0 0 0 0 0 0 0 0 0 0 0 0 0 0 0 0 0 127 0"/>
<feOffset dy="1.66569"/>
<feGaussianBlur stdDeviation="2.08211"/>
<feColorMatrix type="matrix" values="0 0 0 0 1 0 0 0 0 0.235294 0 0 0 0 0.235294 0 0 0 0.21 0"/>
<feBlend mode="normal" in2="BackgroundImageFix" result="effect1_dropShadow"/>
<feBlend mode="normal" in="SourceGraphic" in2="effect1_dropShadow" result="shape"/>
</filter>
<filter id="filter5_d" x="391.76" y="484.199" width="26.2214" height="26.2214" filterUnits="userSpaceOnUse" color-interpolation-filters="sRGB">
<feFlood flood-opacity="0" result="BackgroundImageFix"/>
<feColorMatrix in="SourceAlpha" type="matrix" values="0 0 0 0 0 0 0 0 0 0 0 0 0 0 0 0 0 0 127 0"/>
<feOffset dy="1.66569"/>
<feGaussianBlur stdDeviation="2.08211"/>
<feColorMatrix type="matrix" values="0 0 0 0 1 0 0 0 0 0.866667 0 0 0 0 0.172549 0 0 0 0.27 0"/>
<feBlend mode="normal" in2="BackgroundImageFix" result="effect1_dropShadow"/>
<feBlend mode="normal" in="SourceGraphic" in2="effect1_dropShadow" result="shape"/>
</filter>
<filter id="filter6_d" x="419.432" y="485.032" width="24.5557" height="24.5557" filterUnits="userSpaceOnUse" color-interpolation-filters="sRGB">
<feFlood flood-opacity="0" result="BackgroundImageFix"/>
<feColorMatrix in="SourceAlpha" type="matrix" values="0 0 0 0 0 0 0 0 0 0 0 0 0 0 0 0 0 0 127 0"/>
<feOffset dy="1.66569"/>
<feGaussianBlur stdDeviation="1.66569"/>
<feColorMatrix type="matrix" values="0 0 0 0 0.352941 0 0 0 0 0.847059 0 0 0 0 0.431373 0 0 0 0.23 0"/>
<feBlend mode="normal" in2="BackgroundImageFix" result="effect1_dropShadow"/>
<feBlend mode="normal" in="SourceGraphic" in2="effect1_dropShadow" result="shape"/>
</filter>
<filter id="filter7_dd" x="705.597" y="650.125" width="404.873" height="323.477" filterUnits="userSpaceOnUse" color-interpolation-filters="sRGB">
<feFlood flood-opacity="0" result="BackgroundImageFix"/>
<feColorMatrix in="SourceAlpha" type="matrix" values="0 0 0 0 0 0 0 0 0 0 0 0 0 0 0 0 0 0 127 0"/>
<feOffset dy="6.81"/>
<feGaussianBlur stdDeviation="28.92"/>
<feColorMatrix type="matrix" values="0 0 0 0 0.0280847 0 0 0 0 0.0263715 0 0 0 0 0.129167 0 0 0 0.09 0"/>
<feBlend mode="normal" in2="BackgroundImageFix" result="effect1_dropShadow"/>
<feColorMatrix in="SourceAlpha" type="matrix" values="0 0 0 0 0 0 0 0 0 0 0 0 0 0 0 0 0 0 127 0"/>
<feOffset dy="5.66"/>
<feGaussianBlur stdDeviation="6.065"/>
<feColorMatrix type="matrix" values="0 0 0 0 0.187417 0 0 0 0 0.170833 0 0 0 0 1 0 0 0 0.04 0"/>
<feBlend mode="normal" in2="effect1_dropShadow" result="effect2_dropShadow"/>
<feBlend mode="normal" in="SourceGraphic" in2="effect2_dropShadow" result="shape"/>
</filter>
<filter id="filter8_d" x="781.632" y="716.477" width="21.067" height="21.0671" filterUnits="userSpaceOnUse" color-interpolation-filters="sRGB">
<feFlood flood-opacity="0" result="BackgroundImageFix"/>
<feColorMatrix in="SourceAlpha" type="matrix" values="0 0 0 0 0 0 0 0 0 0 0 0 0 0 0 0 0 0 127 0"/>
<feOffset dy="1.91518"/>
<feGaussianBlur stdDeviation="2.39398"/>
<feColorMatrix type="matrix" values="0 0 0 0 1 0 0 0 0 0.235294 0 0 0 0 0.235294 0 0 0 0.21 0"/>
<feBlend mode="normal" in2="BackgroundImageFix" result="effect1_dropShadow"/>
<feBlend mode="normal" in="SourceGraphic" in2="effect1_dropShadow" result="shape"/>
</filter>
<filter id="filter9_d" x="797.911" y="716.477" width="21.0671" height="21.0671" filterUnits="userSpaceOnUse" color-interpolation-filters="sRGB">
<feFlood flood-opacity="0" result="BackgroundImageFix"/>
<feColorMatrix in="SourceAlpha" type="matrix" values="0 0 0 0 0 0 0 0 0 0 0 0 0 0 0 0 0 0 127 0"/>
<feOffset dy="1.91518"/>
<feGaussianBlur stdDeviation="2.39398"/>
<feColorMatrix type="matrix" values="0 0 0 0 1 0 0 0 0 0.866667 0 0 0 0 0.172549 0 0 0 0.27 0"/>
<feBlend mode="normal" in2="BackgroundImageFix" result="effect1_dropShadow"/>
<feBlend mode="normal" in="SourceGraphic" in2="effect1_dropShadow" result="shape"/>
</filter>
<filter id="filter10_d" x="816.105" y="717.434" width="19.1519" height="19.1519" filterUnits="userSpaceOnUse" color-interpolation-filters="sRGB">
<feFlood flood-opacity="0" result="BackgroundImageFix"/>
<feColorMatrix in="SourceAlpha" type="matrix" values="0 0 0 0 0 0 0 0 0 0 0 0 0 0 0 0 0 0 127 0"/>
<feOffset dy="1.91518"/>
<feGaussianBlur stdDeviation="1.91518"/>
<feColorMatrix type="matrix" values="0 0 0 0 0.352941 0 0 0 0 0.847059 0 0 0 0 0.431373 0 0 0 0.23 0"/>
<feBlend mode="normal" in2="BackgroundImageFix" result="effect1_dropShadow"/>
<feBlend mode="normal" in="SourceGraphic" in2="effect1_dropShadow" result="shape"/>
</filter>
<filter id="filter11_d" x="778.93" y="742.38" width="125.103" height="26.4711" filterUnits="userSpaceOnUse" color-interpolation-filters="sRGB">
<feFlood flood-opacity="0" result="BackgroundImageFix"/>
<feColorMatrix in="SourceAlpha" type="matrix" values="0 0 0 0 0 0 0 0 0 0 0 0 0 0 0 0 0 0 127 0"/>
<feOffset dy="2.75"/>
<feGaussianBlur stdDeviation="3.745"/>
<feColorMatrix type="matrix" values="0 0 0 0 0.187417 0 0 0 0 0.170833 0 0 0 0 1 0 0 0 0.2 0"/>
<feBlend mode="normal" in2="BackgroundImageFix" result="effect1_dropShadow"/>
<feBlend mode="normal" in="SourceGraphic" in2="effect1_dropShadow" result="shape"/>
</filter>
<filter id="filter12_d" x="798.08" y="846.757" width="47.5381" height="26.4711" filterUnits="userSpaceOnUse" color-interpolation-filters="sRGB">
<feFlood flood-opacity="0" result="BackgroundImageFix"/>
<feColorMatrix in="SourceAlpha" type="matrix" values="0 0 0 0 0 0 0 0 0 0 0 0 0 0 0 0 0 0 127 0"/>
<feOffset dy="2.75"/>
<feGaussianBlur stdDeviation="3.745"/>
<feColorMatrix type="matrix" values="0 0 0 0 0.187417 0 0 0 0 0.170833 0 0 0 0 1 0 0 0 0.2 0"/>
<feBlend mode="normal" in2="BackgroundImageFix" result="effect1_dropShadow"/>
<feBlend mode="normal" in="SourceGraphic" in2="effect1_dropShadow" result="shape"/>
</filter>
<filter id="filter13_d" x="778.93" y="784.514" width="63.8172" height="26.4711" filterUnits="userSpaceOnUse" color-interpolation-filters="sRGB">
<feFlood flood-opacity="0" result="BackgroundImageFix"/>
<feColorMatrix in="SourceAlpha" type="matrix" values="0 0 0 0 0 0 0 0 0 0 0 0 0 0 0 0 0 0 127 0"/>
<feOffset dy="2.75"/>
<feGaussianBlur stdDeviation="3.745"/>
<feColorMatrix type="matrix" values="0 0 0 0 0.187417 0 0 0 0 0.170833 0 0 0 0 1 0 0 0 0.2 0"/>
<feBlend mode="normal" in2="BackgroundImageFix" result="effect1_dropShadow"/>
<feBlend mode="normal" in="SourceGraphic" in2="effect1_dropShadow" result="shape"/>
</filter>
<filter id="filter14_d" x="881.393" y="805.581" width="149.043" height="26.4711" filterUnits="userSpaceOnUse" color-interpolation-filters="sRGB">
<feFlood flood-opacity="0" result="BackgroundImageFix"/>
<feColorMatrix in="SourceAlpha" type="matrix" values="0 0 0 0 0 0 0 0 0 0 0 0 0 0 0 0 0 0 127 0"/>
<feOffset dy="2.75"/>
<feGaussianBlur stdDeviation="3.745"/>
<feColorMatrix type="matrix" values="0 0 0 0 0.187417 0 0 0 0 0.170833 0 0 0 0 1 0 0 0 0.2 0"/>
<feBlend mode="normal" in2="BackgroundImageFix" result="effect1_dropShadow"/>
<feBlend mode="normal" in="SourceGraphic" in2="effect1_dropShadow" result="shape"/>
</filter>
<filter id="filter15_d" x="424.564" y="804.961" width="96.7144" height="96.7144" filterUnits="userSpaceOnUse" color-interpolation-filters="sRGB">
<feFlood flood-opacity="0" result="BackgroundImageFix"/>
<feColorMatrix in="SourceAlpha" type="matrix" values="0 0 0 0 0 0 0 0 0 0 0 0 0 0 0 0 0 0 127 0"/>
<feOffset dy="5"/>
<feGaussianBlur stdDeviation="7"/>
<feColorMatrix type="matrix" values="0 0 0 0 0.187417 0 0 0 0 0.170833 0 0 0 0 1 0 0 0 0.13 0"/>
<feBlend mode="normal" in2="BackgroundImageFix" result="effect1_dropShadow"/>
<feBlend mode="normal" in="SourceGraphic" in2="effect1_dropShadow" result="shape"/>
</filter>
<filter id="filter16_d" x="617.873" y="804.961" width="96.7144" height="96.7144" filterUnits="userSpaceOnUse" color-interpolation-filters="sRGB">
<feFlood flood-opacity="0" result="BackgroundImageFix"/>
<feColorMatrix in="SourceAlpha" type="matrix" values="0 0 0 0 0 0 0 0 0 0 0 0 0 0 0 0 0 0 127 0"/>
<feOffset dy="5"/>
<feGaussianBlur stdDeviation="7"/>
<feColorMatrix type="matrix" values="0 0 0 0 0.187417 0 0 0 0 0.170833 0 0 0 0 1 0 0 0 0.13 0"/>
<feBlend mode="normal" in2="BackgroundImageFix" result="effect1_dropShadow"/>
<feBlend mode="normal" in="SourceGraphic" in2="effect1_dropShadow" result="shape"/>
</filter>
<filter id="filter17_ddd" x="801.789" y="0.34" width="373.498" height="660.132" filterUnits="userSpaceOnUse" color-interpolation-filters="sRGB">
<feFlood flood-opacity="0" result="BackgroundImageFix"/>
<feColorMatrix in="SourceAlpha" type="matrix" values="0 0 0 0 0 0 0 0 0 0 0 0 0 0 0 0 0 0 127 0"/>
<feOffset dy="8.33"/>
<feGaussianBlur stdDeviation="12.16"/>
<feColorMatrix type="matrix" values="0 0 0 0 0.187417 0 0 0 0 0.170833 0 0 0 0 1 0 0 0 0.05 0"/>
<feBlend mode="normal" in2="BackgroundImageFix" result="effect1_dropShadow"/>
<feColorMatrix in="SourceAlpha" type="matrix" values="0 0 0 0 0 0 0 0 0 0 0 0 0 0 0 0 0 0 127 0"/>
<feOffset dy="6.66"/>
<feGaussianBlur stdDeviation="26.16"/>
<feColorMatrix type="matrix" values="0 0 0 0 0.0280847 0 0 0 0 0.0263715 0 0 0 0 0.129167 0 0 0 0.02 0"/>
<feBlend mode="normal" in2="effect1_dropShadow" result="effect2_dropShadow"/>
<feColorMatrix in="SourceAlpha" type="matrix" values="0 0 0 0 0 0 0 0 0 0 0 0 0 0 0 0 0 0 127 0"/>
<feOffset dy="-4"/>
<feGaussianBlur stdDeviation="3.5"/>
<feColorMatrix type="matrix" values="0 0 0 0 0.0280847 0 0 0 0 0.0263715 0 0 0 0 0.129167 0 0 0 0.01 0"/>
<feBlend mode="normal" in2="effect2_dropShadow" result="effect3_dropShadow"/>
<feBlend mode="normal" in="SourceGraphic" in2="effect3_dropShadow" result="shape"/>
</filter>
<filter id="filter18_d" x="956.18" y="439.472" width="64.7195" height="64.7183" filterUnits="userSpaceOnUse" color-interpolation-filters="sRGB">
<feFlood flood-opacity="0" result="BackgroundImageFix"/>
<feColorMatrix in="SourceAlpha" type="matrix" values="0 0 0 0 0 0 0 0 0 0 0 0 0 0 0 0 0 0 127 0"/>
<feOffset dy="4"/>
<feGaussianBlur stdDeviation="5"/>
<feColorMatrix type="matrix" values="0 0 0 0 0.187417 0 0 0 0 0.170833 0 0 0 0 1 0 0 0 0.24 0"/>
<feBlend mode="normal" in2="BackgroundImageFix" result="effect1_dropShadow"/>
<feBlend mode="normal" in="SourceGraphic" in2="effect1_dropShadow" result="shape"/>
</filter>
<filter id="filter19_d" x="870.768" y="299.344" width="126.253" height="58.3844" filterUnits="userSpaceOnUse" color-interpolation-filters="sRGB">
<feFlood flood-opacity="0" result="BackgroundImageFix"/>
<feColorMatrix in="SourceAlpha" type="matrix" values="0 0 0 0 0 0 0 0 0 0 0 0 0 0 0 0 0 0 127 0"/>
<feOffset dy="5"/>
<feGaussianBlur stdDeviation="7"/>
<feColorMatrix type="matrix" values="0 0 0 0 0.187417 0 0 0 0 0.170833 0 0 0 0 1 0 0 0 0.18 0"/>
<feBlend mode="normal" in2="BackgroundImageFix" result="effect1_dropShadow"/>
<feBlend mode="normal" in="SourceGraphic" in2="effect1_dropShadow" result="shape"/>
</filter>
<filter id="filter20_d" x="874.768" y="91.5586" width="227.542" height="128.867" filterUnits="userSpaceOnUse" color-interpolation-filters="sRGB">
<feFlood flood-opacity="0" result="BackgroundImageFix"/>
<feColorMatrix in="SourceAlpha" type="matrix" values="0 0 0 0 0 0 0 0 0 0 0 0 0 0 0 0 0 0 127 0"/>
<feOffset dy="3"/>
<feGaussianBlur stdDeviation="5"/>
<feColorMatrix type="matrix" values="0 0 0 0 0.187417 0 0 0 0 0.170833 0 0 0 0 1 0 0 0 0.17 0"/>
<feBlend mode="normal" in2="BackgroundImageFix" result="effect1_dropShadow"/>
<feBlend mode="normal" in="SourceGraphic" in2="effect1_dropShadow" result="shape"/>
</filter>
<filter id="filter21_d" x="254.74" y="491.472" width="42" height="42" filterUnits="userSpaceOnUse" color-interpolation-filters="sRGB">
<feFlood flood-opacity="0" result="BackgroundImageFix"/>
<feColorMatrix in="SourceAlpha" type="matrix" values="0 0 0 0 0 0 0 0 0 0 0 0 0 0 0 0 0 0 127 0"/>
<feOffset dy="4"/>
<feGaussianBlur stdDeviation="4.5"/>
<feColorMatrix type="matrix" values="0 0 0 0 0.187417 0 0 0 0 0.170833 0 0 0 0 1 0 0 0 0.23 0"/>
<feBlend mode="normal" in2="BackgroundImageFix" result="effect1_dropShadow"/>
<feBlend mode="normal" in="SourceGraphic" in2="effect1_dropShadow" result="shape"/>
</filter>
<filter id="filter22_d" x="779.092" y="388.502" width="42" height="42" filterUnits="userSpaceOnUse" color-interpolation-filters="sRGB">
<feFlood flood-opacity="0" result="BackgroundImageFix"/>
<feColorMatrix in="SourceAlpha" type="matrix" values="0 0 0 0 0 0 0 0 0 0 0 0 0 0 0 0 0 0 127 0"/>
<feOffset dy="4"/>
<feGaussianBlur stdDeviation="4.5"/>
<feColorMatrix type="matrix" values="0 0 0 0 0.187417 0 0 0 0 0.170833 0 0 0 0 1 0 0 0 0.23 0"/>
<feBlend mode="normal" in2="BackgroundImageFix" result="effect1_dropShadow"/>
<feBlend mode="normal" in="SourceGraphic" in2="effect1_dropShadow" result="shape"/>
</filter>
<filter id="filter23_dd" x="969.869" y="312.426" width="233.867" height="231" filterUnits="userSpaceOnUse" color-interpolation-filters="sRGB">
<feFlood flood-opacity="0" result="BackgroundImageFix"/>
<feColorMatrix in="SourceAlpha" type="matrix" values="0 0 0 0 0 0 0 0 0 0 0 0 0 0 0 0 0 0 127 0"/>
<feOffset dy="6"/>
<feGaussianBlur stdDeviation="17"/>
<feColorMatrix type="matrix" values="0 0 0 0 0.0280847 0 0 0 0 0.0263715 0 0 0 0 0.129167 0 0 0 0.08 0"/>
<feBlend mode="normal" in2="BackgroundImageFix" result="effect1_dropShadow"/>
<feColorMatrix in="SourceAlpha" type="matrix" values="0 0 0 0 0 0 0 0 0 0 0 0 0 0 0 0 0 0 127 0"/>
<feOffset dy="4"/>
<feGaussianBlur stdDeviation="12"/>
<feColorMatrix type="matrix" values="0 0 0 0 0.187417 0 0 0 0 0.170833 0 0 0 0 1 0 0 0 0.03 0"/>
<feBlend mode="normal" in2="effect1_dropShadow" result="effect2_dropShadow"/>
<feBlend mode="normal" in="SourceGraphic" in2="effect2_dropShadow" result="shape"/>
</filter>
<filter id="filter24_d" x="1036.9" y="363.28" width="99.8243" height="99.8244" filterUnits="userSpaceOnUse" color-interpolation-filters="sRGB">
<feFlood flood-opacity="0" result="BackgroundImageFix"/>
<feColorMatrix in="SourceAlpha" type="matrix" values="0 0 0 0 0 0 0 0 0 0 0 0 0 0 0 0 0 0 127 0"/>
<feOffset dy="5"/>
<feGaussianBlur stdDeviation="7"/>
<feColorMatrix type="matrix" values="0 0 0 0 0.187417 0 0 0 0 0.170833 0 0 0 0 1 0 0 0 0.13 0"/>
<feBlend mode="normal" in2="BackgroundImageFix" result="effect1_dropShadow"/>
<feBlend mode="normal" in="SourceGraphic" in2="effect1_dropShadow" result="shape"/>
</filter>
<filter id="filter25_dd" x="0.16" y="539.328" width="455.737" height="396.279" filterUnits="userSpaceOnUse" color-interpolation-filters="sRGB">
<feFlood flood-opacity="0" result="BackgroundImageFix"/>
<feColorMatrix in="SourceAlpha" type="matrix" values="0 0 0 0 0 0 0 0 0 0 0 0 0 0 0 0 0 0 127 0"/>
<feOffset dy="6.81"/>
<feGaussianBlur stdDeviation="28.92"/>
<feColorMatrix type="matrix" values="0 0 0 0 0.0280847 0 0 0 0 0.0263715 0 0 0 0 0.129167 0 0 0 0.05 0"/>
<feBlend mode="normal" in2="BackgroundImageFix" result="effect1_dropShadow"/>
<feColorMatrix in="SourceAlpha" type="matrix" values="0 0 0 0 0 0 0 0 0 0 0 0 0 0 0 0 0 0 127 0"/>
<feOffset dy="5.66"/>
<feGaussianBlur stdDeviation="6.065"/>
<feColorMatrix type="matrix" values="0 0 0 0 0.187417 0 0 0 0 0.170833 0 0 0 0 1 0 0 0 0.06 0"/>
<feBlend mode="normal" in2="effect1_dropShadow" result="effect2_dropShadow"/>
<feBlend mode="normal" in="SourceGraphic" in2="effect2_dropShadow" result="shape"/>
</filter>
<filter id="filter26_d" x="160.946" y="624.258" width="73.8269" height="26.4711" filterUnits="userSpaceOnUse" color-interpolation-filters="sRGB">
<feFlood flood-opacity="0" result="BackgroundImageFix"/>
<feColorMatrix in="SourceAlpha" type="matrix" values="0 0 0 0 0 0 0 0 0 0 0 0 0 0 0 0 0 0 127 0"/>
<feOffset dy="2.75"/>
<feGaussianBlur stdDeviation="3.745"/>
<feColorMatrix type="matrix" values="0 0 0 0 0.187417 0 0 0 0 0.170833 0 0 0 0 1 0 0 0 0.2 0"/>
<feBlend mode="normal" in2="BackgroundImageFix" result="effect1_dropShadow"/>
<feBlend mode="normal" in="SourceGraphic" in2="effect1_dropShadow" result="shape"/>
</filter>
<filter id="filter27_d" x="160.946" y="666.392" width="56.6149" height="26.4711" filterUnits="userSpaceOnUse" color-interpolation-filters="sRGB">
<feFlood flood-opacity="0" result="BackgroundImageFix"/>
<feColorMatrix in="SourceAlpha" type="matrix" values="0 0 0 0 0 0 0 0 0 0 0 0 0 0 0 0 0 0 127 0"/>
<feOffset dy="2.75"/>
<feGaussianBlur stdDeviation="3.745"/>
<feColorMatrix type="matrix" values="0 0 0 0 0.187417 0 0 0 0 0.170833 0 0 0 0 1 0 0 0 0.2 0"/>
<feBlend mode="normal" in2="BackgroundImageFix" result="effect1_dropShadow"/>
<feBlend mode="normal" in="SourceGraphic" in2="effect1_dropShadow" result="shape"/>
</filter>
<filter id="filter28_d" x="66.2363" y="682.471" width="45.5024" height="25.4911" filterUnits="userSpaceOnUse" color-interpolation-filters="sRGB">
<feFlood flood-opacity="0" result="BackgroundImageFix"/>
<feColorMatrix in="SourceAlpha" type="matrix" values="0 0 0 0 0 0 0 0 0 0 0 0 0 0 0 0 0 0 127 0"/>
<feOffset dy="2"/>
<feGaussianBlur stdDeviation="3.5"/>
<feColorMatrix type="matrix" values="0 0 0 0 0.187417 0 0 0 0 0.170833 0 0 0 0 1 0 0 0 0.23 0"/>
<feBlend mode="normal" in2="BackgroundImageFix" result="effect1_dropShadow"/>
<feBlend mode="normal" in="SourceGraphic" in2="effect1_dropShadow" result="shape"/>
</filter>
<filter id="filter29_d" x="66.2363" y="829.49" width="69.4818" height="25.4911" filterUnits="userSpaceOnUse" color-interpolation-filters="sRGB">
<feFlood flood-opacity="0" result="BackgroundImageFix"/>
<feColorMatrix in="SourceAlpha" type="matrix" values="0 0 0 0 0 0 0 0 0 0 0 0 0 0 0 0 0 0 127 0"/>
<feOffset dy="2"/>
<feGaussianBlur stdDeviation="3.5"/>
<feColorMatrix type="matrix" values="0 0 0 0 0.187417 0 0 0 0 0.170833 0 0 0 0 1 0 0 0 0.23 0"/>
<feBlend mode="normal" in2="BackgroundImageFix" result="effect1_dropShadow"/>
<feBlend mode="normal" in="SourceGraphic" in2="effect1_dropShadow" result="shape"/>
</filter>
<filter id="filter30_d" x="303.379" y="730.017" width="79.6442" height="26.4711" filterUnits="userSpaceOnUse" color-interpolation-filters="sRGB">
<feFlood flood-opacity="0" result="BackgroundImageFix"/>
<feColorMatrix in="SourceAlpha" type="matrix" values="0 0 0 0 0 0 0 0 0 0 0 0 0 0 0 0 0 0 127 0"/>
<feOffset dy="2.75"/>
<feGaussianBlur stdDeviation="3.745"/>
<feColorMatrix type="matrix" values="0 0 0 0 0.187417 0 0 0 0 0.170833 0 0 0 0 1 0 0 0 0.2 0"/>
<feBlend mode="normal" in2="BackgroundImageFix" result="effect1_dropShadow"/>
<feBlend mode="normal" in="SourceGraphic" in2="effect1_dropShadow" result="shape"/>
</filter>
<filter id="filter31_d" x="248.297" y="687.459" width="129.272" height="26.4711" filterUnits="userSpaceOnUse" color-interpolation-filters="sRGB">
<feFlood flood-opacity="0" result="BackgroundImageFix"/>
<feColorMatrix in="SourceAlpha" type="matrix" values="0 0 0 0 0 0 0 0 0 0 0 0 0 0 0 0 0 0 127 0"/>
<feOffset dy="2.75"/>
<feGaussianBlur stdDeviation="3.745"/>
<feColorMatrix type="matrix" values="0 0 0 0 0.187417 0 0 0 0 0.170833 0 0 0 0 1 0 0 0 0.2 0"/>
<feBlend mode="normal" in2="BackgroundImageFix" result="effect1_dropShadow"/>
<feBlend mode="normal" in="SourceGraphic" in2="effect1_dropShadow" result="shape"/>
</filter>
<filter id="filter32_d" x="1141.52" y="668.907" width="42" height="42" filterUnits="userSpaceOnUse" color-interpolation-filters="sRGB">
<feFlood flood-opacity="0" result="BackgroundImageFix"/>
<feColorMatrix in="SourceAlpha" type="matrix" values="0 0 0 0 0 0 0 0 0 0 0 0 0 0 0 0 0 0 127 0"/>
<feOffset dy="4"/>
<feGaussianBlur stdDeviation="4.5"/>
<feColorMatrix type="matrix" values="0 0 0 0 0.187417 0 0 0 0 0.170833 0 0 0 0 1 0 0 0 0.23 0"/>
<feBlend mode="normal" in2="BackgroundImageFix" result="effect1_dropShadow"/>
<feBlend mode="normal" in="SourceGraphic" in2="effect1_dropShadow" result="shape"/>
</filter>
<filter id="filter33_dd" x="746.092" y="127.142" width="206.602" height="204.897" filterUnits="userSpaceOnUse" color-interpolation-filters="sRGB">
<feFlood flood-opacity="0" result="BackgroundImageFix"/>
<feColorMatrix in="SourceAlpha" type="matrix" values="0 0 0 0 0 0 0 0 0 0 0 0 0 0 0 0 0 0 127 0"/>
<feOffset dy="5"/>
<feGaussianBlur stdDeviation="9.5"/>
<feColorMatrix type="matrix" values="0 0 0 0 0.0280847 0 0 0 0 0.0263715 0 0 0 0 0.129167 0 0 0 0.07 0"/>
<feBlend mode="normal" in2="BackgroundImageFix" result="effect1_dropShadow"/>
<feColorMatrix in="SourceAlpha" type="matrix" values="0 0 0 0 0 0 0 0 0 0 0 0 0 0 0 0 0 0 127 0"/>
<feOffset dy="6"/>
<feGaussianBlur stdDeviation="27"/>
<feColorMatrix type="matrix" values="0 0 0 0 0.187417 0 0 0 0 0.170833 0 0 0 0 1 0 0 0 0.11 0"/>
<feBlend mode="normal" in2="effect1_dropShadow" result="effect2_dropShadow"/>
<feBlend mode="normal" in="SourceGraphic" in2="effect2_dropShadow" result="shape"/>
</filter>
<filter id="filter34_d" x="803.045" y="179.244" width="92.6939" height="92.6939" filterUnits="userSpaceOnUse" color-interpolation-filters="sRGB">
<feFlood flood-opacity="0" result="BackgroundImageFix"/>
<feColorMatrix in="SourceAlpha" type="matrix" values="0 0 0 0 0 0 0 0 0 0 0 0 0 0 0 0 0 0 127 0"/>
<feOffset dy="2"/>
<feGaussianBlur stdDeviation="5"/>
<feColorMatrix type="matrix" values="0 0 0 0 0.187417 0 0 0 0 0.170833 0 0 0 0 1 0 0 0 0.33 0"/>
<feBlend mode="normal" in2="BackgroundImageFix" result="effect1_dropShadow"/>
<feBlend mode="normal" in="SourceGraphic" in2="effect1_dropShadow" result="shape"/>
</filter>
<filter id="filter35_dd" x="158.268" y="787.225" width="206.602" height="202.9" filterUnits="userSpaceOnUse" color-interpolation-filters="sRGB">
<feFlood flood-opacity="0" result="BackgroundImageFix"/>
<feColorMatrix in="SourceAlpha" type="matrix" values="0 0 0 0 0 0 0 0 0 0 0 0 0 0 0 0 0 0 127 0"/>
<feOffset dy="5"/>
<feGaussianBlur stdDeviation="9.5"/>
<feColorMatrix type="matrix" values="0 0 0 0 0.0280847 0 0 0 0 0.0263715 0 0 0 0 0.129167 0 0 0 0.07 0"/>
<feBlend mode="normal" in2="BackgroundImageFix" result="effect1_dropShadow"/>
<feColorMatrix in="SourceAlpha" type="matrix" values="0 0 0 0 0 0 0 0 0 0 0 0 0 0 0 0 0 0 127 0"/>
<feOffset dy="6"/>
<feGaussianBlur stdDeviation="27"/>
<feColorMatrix type="matrix" values="0 0 0 0 0.187417 0 0 0 0 0.170833 0 0 0 0 1 0 0 0 0.11 0"/>
<feBlend mode="normal" in2="effect1_dropShadow" result="effect2_dropShadow"/>
<feBlend mode="normal" in="SourceGraphic" in2="effect2_dropShadow" result="shape"/>
</filter>
<filter id="filter36_d" x="213.693" y="836.802" width="95.746" height="95.746" filterUnits="userSpaceOnUse" color-interpolation-filters="sRGB">
<feFlood flood-opacity="0" result="BackgroundImageFix"/>
<feColorMatrix in="SourceAlpha" type="matrix" values="0 0 0 0 0 0 0 0 0 0 0 0 0 0 0 0 0 0 127 0"/>
<feOffset dy="2"/>
<feGaussianBlur stdDeviation="5"/>
<feColorMatrix type="matrix" values="0 0 0 0 0.187417 0 0 0 0 0.170833 0 0 0 0 1 0 0 0 0.33 0"/>
<feBlend mode="normal" in2="BackgroundImageFix" result="effect1_dropShadow"/>
<feBlend mode="normal" in="SourceGraphic" in2="effect1_dropShadow" result="shape"/>
</filter>
<filter id="filter37_d" x="405.564" y="936.903" width="42" height="42" filterUnits="userSpaceOnUse" color-interpolation-filters="sRGB">
<feFlood flood-opacity="0" result="BackgroundImageFix"/>
<feColorMatrix in="SourceAlpha" type="matrix" values="0 0 0 0 0 0 0 0 0 0 0 0 0 0 0 0 0 0 127 0"/>
<feOffset dy="4"/>
<feGaussianBlur stdDeviation="4.5"/>
<feColorMatrix type="matrix" values="0 0 0 0 0.187417 0 0 0 0 0.170833 0 0 0 0 1 0 0 0 0.23 0"/>
<feBlend mode="normal" in2="BackgroundImageFix" result="effect1_dropShadow"/>
<feBlend mode="normal" in="SourceGraphic" in2="effect1_dropShadow" result="shape"/>
</filter>
</defs>
</svg>
