<?xml version="1.0" encoding="utf-8"?>
<!-- Generator: Adobe Illustrator 19.0.0, SVG Export Plug-In . SVG Version: 6.00 Build 0)  -->
<svg version="1.1" id="Layer_1" xmlns="http://www.w3.org/2000/svg" xmlns:xlink="http://www.w3.org/1999/xlink" x="0px" y="0px"
	 viewBox="63 -59.2 256 290.2" style="enable-background:new 63 -59.2 256 290.2;" xml:space="preserve">
<style type="text/css">
	.st0{fill:#E44D26;}
	.st1{fill:#F16529;}
	.st2{fill:#EBEBEB;}
	.st3{fill:#FFFFFF;}
</style>
<path class="st0" d="M318.6-59.2l-23.2,260.4l-104.5,29L86.7,201.2L63.4-59.2H318.6L318.6-59.2z"/>
<path class="st1" d="M191,208l84.4-23.4l19.9-222.5H191V208L191,208z"/>
<path class="st2" d="M145.8,25.9H191V-6h-80.1l0.8,8.6l7.8,88H191V58.6h-42.3L145.8,25.9L145.8,25.9z"/>
<path class="st2" d="M153,106.5H121l4.5,50.1l65.4,18.2l0.1,0v-33.2l-0.1,0l-35.6-9.6L153,106.5L153,106.5z"/>
<path class="st3" d="M190.9,90.6h39.3l-3.7,41.4l-35.6,9.6v33.2l65.5-18.1l0.5-5.4l7.5-84.1l0.8-8.6h-74.2V90.6L190.9,90.6z"/>
<path class="st3" d="M190.9,25.9L190.9,25.9l77.1,0.1l0.6-7.2l1.5-16.2l0.8-8.6h-80V25.9L190.9,25.9z"/>
</svg>
