<svg width="138" height="138" viewBox="0 0 138 138" fill="none" xmlns="http://www.w3.org/2000/svg">
<g opacity="0.32">
<path d="M118.237 64.0451C118.235 59.4841 116.449 55.1049 113.259 51.845C110.069 48.5852 105.729 46.704 101.169 46.6043C100.699 46.5948 100.246 46.4241 99.8871 46.1208C99.5278 45.8175 99.2835 45.4 99.1952 44.9382C98.027 38.7621 94.9931 33.0928 90.5027 28.6946C86.0123 24.2964 80.2812 21.3809 74.0823 20.341C67.8834 19.3011 61.5146 20.187 55.8348 22.8791C50.155 25.5713 45.4372 29.9403 42.3176 35.397C42.149 35.6891 41.911 35.9351 41.6247 36.1134C41.3384 36.2916 41.0126 36.3965 40.6761 36.4188C34.9896 36.8277 29.6691 39.3757 25.7859 43.5498C21.9026 47.7239 19.7448 53.2143 19.7471 58.9154C19.7471 78.6133 39.7979 81.4408 40.2657 81.486H99.8231C104.901 81.4471 109.794 79.5776 113.603 76.2209C115.166 74.615 116.383 72.7063 117.18 70.6123C117.976 68.5183 118.336 66.2834 118.237 64.0451V64.0451ZM92.0958 63.9548L88.9236 69.2363C88.6513 69.7086 88.2876 70.1219 87.8538 70.452C87.42 70.7821 86.9248 71.0226 86.397 71.1592C85.8693 71.2958 85.3196 71.3259 84.7801 71.2477C84.2406 71.1696 83.722 70.9847 83.2548 70.7039C82.7875 70.4231 82.3809 70.052 82.0586 69.6123C81.7364 69.1726 81.5049 68.6731 81.3779 68.143C81.2508 67.6129 81.2306 67.0627 81.3185 66.5247C81.4064 65.9867 81.6006 65.4716 81.8898 65.0095L85.0579 59.7321C85.3352 59.27 85.7007 58.867 86.1337 58.5462C86.5668 58.2253 87.0587 57.9929 87.5815 57.8622C88.1044 57.7315 88.6478 57.7051 89.1809 57.7844C89.7139 57.8637 90.2261 58.0472 90.6882 58.3245C91.1503 58.6018 91.5533 58.9674 91.8741 59.4004C92.195 59.8334 92.4274 60.3253 92.5581 60.8482C92.6888 61.371 92.7152 61.9144 92.6359 62.4475C92.5566 62.9805 92.3731 63.4927 92.0958 63.9548V63.9548ZM63.5256 64.8453L71.7331 52.5342C72.0322 52.0858 72.4167 51.7007 72.8646 51.4009C73.3125 51.1011 73.8151 50.8925 74.3436 50.787C74.8721 50.6814 75.4163 50.681 75.945 50.7857C76.4737 50.8905 76.9766 51.0983 77.425 51.3974C77.8733 51.6965 78.2584 52.081 78.5582 52.5289C78.858 52.9768 79.0666 53.4794 79.1722 54.0079C79.2777 54.5365 79.2781 55.0806 79.1734 55.6093C79.0686 56.138 78.8608 56.6409 78.5617 57.0893L70.3542 69.4005C69.7502 70.306 68.8112 70.9345 67.7437 71.1477C66.6763 71.3608 65.5679 71.1413 64.6624 70.5372C63.7568 69.9332 63.1284 68.9941 62.9152 67.9267C62.702 66.8593 62.9216 65.7509 63.5256 64.8453V64.8453Z" fill="#302CFF"/>
<rect x="58.4736" y="49.7212" width="41.5273" height="23.8451" fill="#302CFF"/>
</g>
<rect x="35.8506" y="80.6124" width="66.298" height="17.1396" rx="8.5698" fill="#302CFF"/>
<rect x="74.1504" y="87.306" width="23.6118" height="3.75196" rx="1.87598" fill="#8987FF"/>
<circle cx="43.6445" cy="89.1821" r="3.5" fill="#F0F0FF"/>
<rect x="35.8506" y="100.943" width="66.298" height="17.1396" rx="8.5698" fill="#302CFF"/>
<rect x="74.1504" y="107.637" width="23.6118" height="3.75196" rx="1.87598" fill="#8987FF"/>
<circle cx="43.6445" cy="109.513" r="3.5" fill="#F0F0FF"/>
<rect x="35.8506" y="60.2822" width="66.298" height="17.1396" rx="8.5698" fill="#302CFF"/>
<circle cx="43.6445" cy="68.8521" r="3.5" fill="#F0F0FF"/>
<rect x="74.1504" y="66.9762" width="23.6118" height="3.75196" rx="1.87598" fill="#8987FF"/>
<rect opacity="0.1" width="138" height="138" fill="#302CFF"/>
</svg>
